<?xml version="1.0" standalone="no"?>
<!DOCTYPE svg PUBLIC "-//W3C//DTD SVG 20010904//EN"
 "http://www.w3.org/TR/2001/REC-SVG-20010904/DTD/svg10.dtd">
<svg version="1.0" xmlns="http://www.w3.org/2000/svg"
 width="512.000000pt" height="512.000000pt" viewBox="0 0 512.000000 512.000000"
 preserveAspectRatio="xMidYMid meet">

<g transform="translate(0.000000,512.000000) scale(0.100000,-0.100000)"
fill="#000000" stroke="none">
<path d="M3515 4650 c17 -7 17 -9 3 -9 -10 -1 -28 -11 -40 -23 -15 -15 -23
-18 -26 -9 -3 8 -17 -2 -38 -24 -27 -30 -34 -34 -34 -19 -1 18 -1 18 -12 -1
-18 -32 -46 -55 -60 -50 -8 3 -21 -8 -31 -25 -19 -31 -41 -42 -31 -15 12 31
-8 13 -22 -20 -19 -46 -18 -48 11 -29 14 9 28 14 32 11 3 -4 -8 -14 -26 -24
-17 -10 -31 -21 -31 -25 0 -13 12 -9 32 9 15 14 21 15 27 4 6 -9 11 -10 15 -3
4 6 14 9 24 6 14 -5 14 -4 3 4 -8 6 -19 8 -25 6 -6 -2 -12 6 -12 18 -2 26 63
78 96 78 13 0 18 5 13 15 -3 9 -2 15 3 13 5 -1 20 4 32 11 36 19 37 6 2 -19
-21 -15 -29 -27 -25 -40 5 -14 -1 -20 -26 -25 -20 -5 -27 -10 -20 -15 10 -5 9
-11 -3 -22 -8 -9 -13 -18 -10 -20 9 -9 -54 -30 -95 -31 -22 -1 -40 -6 -39 -12
2 -18 -13 -43 -52 -84 -22 -23 -44 -51 -50 -64 -10 -19 -8 -18 13 5 14 15 28
25 31 22 3 -2 4 -1 1 2 -11 16 76 65 148 83 50 12 127 56 127 73 0 5 4 7 8 4
4 -2 17 9 27 26 11 16 30 34 42 39 13 4 21 14 18 21 -6 17 31 61 45 53 5 -3
10 1 10 9 0 9 5 16 10 16 6 0 10 7 10 16 0 8 4 12 10 9 6 -3 7 1 4 9 -3 9 -11
13 -18 9 -6 -4 -6 0 2 9 11 14 8 17 -19 27 -18 6 -41 11 -53 10 -21 0 -21 -1
-1 -9z"/>
<path d="M161 4623 c-13 -3 -37 -14 -55 -25 -17 -11 -22 -17 -11 -13 98 36
108 37 320 30 116 -4 311 -7 434 -6 148 0 229 -3 238 -10 7 -6 18 -9 25 -7 7
3 33 2 58 -1 31 -5 -12 -10 -138 -15 -101 -4 -182 -10 -180 -11 2 -2 64 -5
138 -6 74 -1 138 -6 141 -12 4 -5 27 -12 53 -14 26 -3 44 -8 41 -11 -3 -3 -80
-13 -173 -22 -165 -17 -166 -17 -74 -19 59 -1 91 -5 87 -11 -3 -5 -16 -10 -29
-10 -14 0 -28 -9 -35 -22 -11 -22 -11 -22 -6 -1 5 18 2 20 -15 16 -11 -3 -20
-11 -20 -18 0 -8 -17 -14 -45 -17 -25 -2 -45 1 -45 6 0 4 -6 3 -14 -3 -9 -7
-34 -10 -64 -8 -27 3 -56 1 -63 -4 -9 -6 20 -9 78 -7 145 3 119 -9 -34 -16
-150 -8 -405 6 -530 28 -78 14 -199 54 -190 63 3 2 15 -1 27 -7 12 -7 31 -10
41 -7 10 3 17 1 13 -4 -5 -8 18 -14 40 -10 4 1 22 -3 40 -8 74 -25 330 -49
340 -32 4 6 -8 9 -34 8 -30 -2 -40 1 -40 13 0 10 -3 11 -8 3 -6 -10 -24 -10
-127 0 -11 1 -26 6 -34 11 -10 6 -12 6 -7 -2 4 -7 2 -12 -3 -12 -6 0 -11 6
-11 14 0 19 -21 25 -43 12 -14 -9 -20 -7 -29 8 -7 13 -12 15 -18 6 -6 -9 -15
-8 -38 4 -17 9 -38 16 -47 16 -8 0 -15 4 -15 8 0 5 26 7 58 6 53 -2 51 -2 -23
10 -44 8 -67 14 -51 15 21 1 27 5 22 16 -3 8 -4 16 -3 17 1 0 67 4 147 8 l145
6 -129 2 c-140 2 -206 -10 -214 -40 -2 -10 -11 -18 -18 -18 -29 0 -3 -98 41
-157 28 -36 139 -119 168 -124 10 -2 18 -8 17 -14 0 -5 14 -13 32 -16 18 -4
42 -10 52 -14 15 -6 17 -5 11 5 -6 10 -4 12 11 6 34 -14 168 -36 224 -36 42 0
51 -3 42 -12 -16 -16 -15 -33 1 -19 17 13 49 17 207 26 129 6 183 12 211 20
12 4 18 -4 23 -32 3 -21 6 -47 6 -57 0 -18 -2 -18 -27 5 l-27 24 19 -30 c18
-30 18 -30 -1 -15 -10 8 -29 23 -41 34 -13 11 -23 15 -23 10 0 -15 64 -74 80
-74 13 0 13 -1 0 -9 -8 -6 -18 -7 -24 -4 -5 3 -28 7 -52 8 -58 4 -100 -24
-126 -81 -27 -62 -18 -123 30 -204 42 -71 158 -191 207 -214 137 -65 341 94
337 264 -1 64 -12 99 -50 155 -40 60 -91 105 -121 106 -24 2 -24 2 -3 6 12 2
20 8 17 13 -3 4 -14 6 -26 3 -12 -4 -25 0 -30 8 -7 11 -12 10 -24 -8 -9 -13
-21 -23 -26 -23 -6 0 -3 10 5 22 9 12 16 34 15 48 -1 23 -2 23 -10 -6 -5 -17
-16 -37 -24 -44 -14 -11 -14 -10 -6 12 5 15 6 30 0 39 -7 11 -9 9 -9 -8 0 -27
-20 -73 -32 -73 -11 0 -10 2 7 44 8 20 12 35 8 34 -16 -3 -43 15 -43 28 0 14
11 18 42 15 9 -1 19 3 23 9 3 5 21 10 40 10 18 0 36 6 39 13 5 9 7 9 12 0 4
-8 11 -6 25 8 10 10 25 19 32 19 35 -1 55 -46 33 -76 -13 -17 -18 -18 -45 -7
-35 13 -38 11 -15 -11 39 -39 105 3 86 55 -11 29 0 64 23 72 37 15 58 128 32
173 -16 28 -64 84 -72 84 -3 0 -16 9 -28 21 -38 36 -94 59 -154 64 -81 6 -963
13 -992 8z m1022 -70 c-7 -2 -19 -2 -25 0 -7 3 -2 5 12 5 14 0 19 -2 13 -5z
m-1096 -9 c-3 -3 -12 -4 -19 -1 -8 3 -5 6 6 6 11 1 17 -2 13 -5z m1073 -63
c-29 -16 -80 -21 -80 -8 0 7 18 13 48 14 29 1 41 -1 32 -6z m55 -1 c-27 -12
-43 -12 -25 0 8 5 22 9 30 9 10 0 8 -3 -5 -9z m-78 -56 c-3 -3 -12 -4 -19 -1
-8 3 -5 6 6 6 11 1 17 -2 13 -5z m-50 -10 c-3 -3 -12 -4 -19 -1 -8 3 -5 6 6 6
11 1 17 -2 13 -5z m108 -360 c8 -4 23 -20 31 -36 l15 -29 -53 27 c-46 23 -50
28 -33 35 11 4 21 8 22 8 1 1 9 -2 18 -5z m-81 -20 c4 -9 1 -23 -5 -30 -9 -11
-8 -19 6 -34 20 -22 7 -28 -14 -7 -8 6 -5 -1 5 -18 11 -16 13 -26 7 -22 -11 7
-16 0 -15 -23 0 -3 -7 -12 -16 -20 -14 -13 -15 -12 -9 3 3 9 2 17 -4 17 -5 0
-12 -7 -15 -15 -5 -11 -11 -12 -25 -4 -24 13 -26 -6 -1 -20 9 -6 12 -11 5 -11
-6 0 -15 5 -18 10 -4 6 -11 7 -17 4 -7 -5 -9 -2 -6 8 7 18 -25 41 -39 27 -5
-5 -9 2 -8 19 0 15 -9 35 -20 45 -17 14 -17 16 -2 11 9 -3 17 -1 17 5 0 6 -6
11 -12 11 -7 0 -5 5 5 11 9 6 15 14 12 20 -6 9 10 14 30 9 6 -2 21 -4 35 -6
14 -1 37 -5 53 -8 22 -5 27 -3 27 14 0 24 15 27 24 4z m26 -54 c0 -5 -4 -10
-10 -10 -5 0 -10 5 -10 10 0 6 5 10 10 10 6 0 10 -4 10 -10z m-210 -40 c0 -5
-5 -10 -11 -10 -5 0 -7 5 -4 10 3 6 8 10 11 10 2 0 4 -4 4 -10z m50 -60 c0 -5
-4 -10 -10 -10 -5 0 -10 5 -10 10 0 6 5 10 10 10 6 0 10 -4 10 -10z"/>
<path d="M1076 3925 c-3 -8 -1 -15 3 -15 5 0 11 7 15 15 3 8 1 15 -3 15 -5 0
-11 -7 -15 -15z"/>
<path d="M2580 4630 c0 -3 9 -29 21 -59 19 -52 20 -81 0 -81 -15 0 -22 30 -11
51 11 20 -3 28 -15 9 -12 -19 -26 -11 -15 9 15 29 12 35 -6 16 -19 -19 -18
-23 56 -145 50 -83 54 -105 40 -190 -11 -66 -15 -74 -81 -146 -64 -70 -92
-115 -52 -83 14 12 16 12 8 0 -6 -11 -4 -13 8 -8 10 4 21 -1 27 -11 8 -13 9
-6 4 28 -7 53 9 46 24 -10 l9 -35 7 50 c11 74 14 76 16 10 l1 -60 18 50 c10
28 33 78 50 112 18 34 33 71 34 82 1 12 5 21 9 21 10 0 9 49 -2 75 -7 17 -9
14 -9 -14 -1 -25 -5 -32 -16 -27 -11 4 -15 -2 -15 -25 0 -51 -15 -24 -18 33
-2 32 3 68 13 90 19 46 19 49 -1 41 -13 -5 -15 -2 -9 17 5 15 4 20 -4 16 -7
-5 -11 2 -11 17 0 27 -39 121 -64 152 -8 11 -16 18 -16 15z m50 -154 c0 -3 -4
-8 -10 -11 -5 -3 -10 -1 -10 4 0 6 5 11 10 11 6 0 10 -2 10 -4z"/>
<path d="M4605 4600 c-16 -16 -24 -30 -18 -30 10 0 34 24 47 48 12 20 2 14
-29 -18z"/>
<path d="M2324 4600 c9 -14 24 -36 33 -48 30 -43 50 -163 24 -148 -12 8 -11
-150 1 -193 12 -41 13 -37 13 75 0 117 1 120 33 174 29 49 30 52 6 25 -25 -29
-26 -29 -21 -6 6 25 4 28 -68 106 -21 22 -30 29 -21 15z"/>
<path d="M3020 4611 c0 -5 6 -16 13 -23 21 -21 26 -45 17 -78 -5 -19 -5 -28 1
-25 5 4 9 12 9 20 0 8 4 17 10 20 7 4 7 -2 0 -19 -5 -14 -7 -33 -4 -41 4 -8
-1 -26 -10 -40 -20 -31 -21 -56 -1 -29 11 14 10 9 -3 -23 -9 -23 -18 -40 -20
-38 -2 2 -4 33 -3 69 0 55 -3 67 -19 76 -18 10 -19 8 -10 -15 16 -42 12 -65
-5 -35 l-15 25 6 -30 c4 -16 10 -34 14 -40 4 -5 11 -39 14 -75 4 -36 13 -76
20 -89 15 -27 18 -24 31 49 4 19 18 69 33 111 24 70 25 80 13 119 -12 39 -91
136 -91 111z m36 -316 c-10 -63 -26 -71 -26 -12 0 21 24 77 34 77 1 0 -3 -29
-8 -65z"/>
<path d="M3753 4597 c10 -8 17 -19 16 -23 -4 -16 13 -44 22 -38 5 3 9 -5 10
-18 0 -13 3 -43 5 -68 5 -42 4 -44 -10 -25 -8 11 -16 25 -16 32 0 6 -4 14 -9
17 -5 4 -7 -4 -4 -16 5 -19 3 -21 -8 -10 -7 6 -17 12 -23 12 -5 0 6 -14 25
-31 28 -26 30 -30 12 -24 -14 4 -23 2 -23 -4 0 -6 5 -11 12 -11 6 0 8 -3 5 -7
-4 -3 3 -18 15 -31 22 -24 22 -24 2 -18 -14 4 -21 2 -21 -8 0 -9 4 -13 9 -10
4 3 8 1 8 -4 0 -5 14 -15 30 -22 17 -7 30 -16 30 -21 0 -5 4 -9 9 -9 4 0 13
26 20 58 22 115 -19 232 -99 275 -19 10 -27 12 -17 4z"/>
<path d="M973 4593 c9 -2 23 -2 30 0 6 3 -1 5 -18 5 -16 0 -22 -2 -12 -5z"/>
<path d="M453 4563 c15 -2 37 -2 50 0 12 2 0 4 -28 4 -27 0 -38 -2 -22 -4z"/>
<path d="M558 4563 c7 -3 16 -2 19 1 4 3 -2 6 -13 5 -11 0 -14 -3 -6 -6z"/>
<path d="M2271 4554 c0 -11 3 -14 6 -6 3 7 2 16 -1 19 -3 4 -6 -2 -5 -13z"/>
<path d="M4419 4539 c70 -76 66 -217 -9 -305 -31 -36 -96 -86 -133 -102 -29
-12 -188 -15 -169 -3 6 3 0 11 -14 18 -13 6 -24 7 -24 2 0 -5 5 -9 11 -9 5 0
8 -4 4 -9 -3 -6 23 -29 57 -53 63 -43 63 -43 153 -43 80 0 95 3 137 27 42 25
47 26 52 10 3 -9 4 -5 2 10 -2 15 0 25 5 23 4 -3 18 0 31 5 23 10 23 10 1 6
-32 -6 -29 10 3 18 15 4 24 9 21 12 -3 4 3 23 14 45 37 69 27 179 -18 227 -7
7 -13 17 -13 21 0 11 -120 131 -130 131 -5 0 4 -14 19 -31z"/>
<path d="M148 4543 c7 -3 16 -2 19 1 4 3 -2 6 -13 5 -11 0 -14 -3 -6 -6z"/>
<path d="M2296 4525 c-3 -9 -6 -31 -5 -48 1 -28 2 -26 10 12 9 46 6 65 -5 36z"/>
<path d="M3010 4521 c0 -11 5 -23 10 -26 6 -3 10 3 10 14 0 11 -4 23 -10 26
-5 3 -10 -3 -10 -14z"/>
<path d="M4869 4478 c30 -47 73 -147 93 -218 7 -26 12 -103 12 -185 0 -153
-10 -191 -81 -310 l-29 -50 -62 3 c-36 2 -62 0 -62 -6 0 -5 15 -21 33 -35 35
-27 113 -40 125 -21 10 15 53 37 59 30 7 -7 68 85 89 133 35 82 26 290 -17
398 -32 82 -78 183 -90 196 -5 7 -19 23 -30 37 -12 14 -28 35 -36 48 -9 12
-19 22 -24 22 -4 0 4 -19 20 -42z"/>
<path d="M228 4503 c6 -2 18 -2 25 0 6 3 1 5 -13 5 -14 0 -19 -2 -12 -5z"/>
<path d="M2855 4495 c41 -107 44 -170 14 -247 -23 -60 -51 -91 -73 -82 -8 3
-25 0 -38 -7 -20 -11 -21 -10 -11 3 7 8 11 17 8 20 -3 3 1 11 10 18 9 7 15 8
15 2 0 -6 -6 -13 -12 -15 -10 -4 -10 -6 0 -6 8 -1 16 7 19 18 3 10 14 24 26
30 20 10 20 11 2 7 -11 -2 -29 -7 -39 -12 -13 -5 -17 -4 -12 4 4 6 22 14 41
18 19 3 35 10 35 14 0 5 -9 6 -20 3 -16 -4 -19 -2 -14 13 4 11 12 25 17 32 8
11 6 11 -15 2 -26 -12 -63 -75 -53 -91 4 -5 1 -9 -5 -9 -6 0 -29 -38 -51 -84
-36 -74 -41 -95 -44 -168 -2 -46 -2 -72 1 -58 8 38 46 152 49 148 2 -2 -5 -42
-17 -88 -16 -68 -21 -122 -23 -265 l-2 -180 7 180 c6 167 8 183 31 225 23 41
59 83 103 119 16 13 17 13 15 0 -9 -51 74 -117 132 -104 42 9 48 46 18 101
-16 31 -34 48 -61 59 -36 14 -37 16 -26 37 7 13 17 26 22 30 5 3 9 55 8 114
-1 85 -6 120 -23 164 -12 30 -27 60 -32 65 -7 7 -7 3 -2 -10z m19 -421 c18 -7
21 -39 5 -50 -16 -9 -43 21 -36 40 7 18 9 18 31 10z m-167 -116 c-3 -8 -6 -5
-6 6 -1 11 2 17 5 13 3 -3 4 -12 1 -19z"/>
<path d="M4235 4485 c4 -16 11 -34 16 -39 15 -16 10 16 -7 44 l-15 25 6 -30z"/>
<path d="M4269 4493 c-10 -12 -10 -16 1 -23 9 -6 18 -4 23 3 5 7 7 3 4 -11 -3
-13 -3 -22 -1 -19 3 3 17 -6 31 -19 14 -13 23 -27 20 -31 -4 -3 -7 -1 -7 5 0
7 -4 12 -10 12 -5 0 -9 -3 -8 -7 4 -14 -13 -53 -23 -53 -5 0 -9 -4 -9 -10 0
-5 7 -10 16 -10 8 0 12 5 9 10 -8 13 1 13 27 -1 15 -8 23 -8 32 1 8 9 7 11 -4
10 -33 -5 -46 1 -25 11 18 8 18 9 -4 5 -18 -4 -21 -2 -12 7 9 9 16 9 31 -1 11
-6 23 -12 27 -12 5 0 1 5 -7 10 -13 8 -13 10 -1 10 11 0 10 4 -4 14 -17 12
-18 16 -5 32 8 11 10 15 5 11 -5 -4 -17 7 -28 25 -10 18 -16 25 -13 16 2 -9
-2 -19 -10 -22 -11 -4 -13 0 -8 18 4 18 1 25 -15 29 -11 3 -26 -1 -32 -10z
m76 -53 c-3 -5 -12 -10 -18 -10 -7 0 -6 4 3 10 19 12 23 12 15 0z"/>
<path d="M2327 4483 c-11 -18 -19 -98 -9 -88 11 11 27 95 18 95 -2 0 -7 -3 -9
-7z"/>
<path d="M3327 4476 c-4 -10 -1 -13 8 -9 8 3 12 9 9 14 -7 12 -11 11 -17 -5z"/>
<path d="M4212 4469 c2 -27 28 -62 28 -37 -1 7 -7 24 -15 38 l-14 25 1 -26z"/>
<path d="M748 4473 c7 -3 16 -2 19 1 4 3 -2 6 -13 5 -11 0 -14 -3 -6 -6z"/>
<path d="M2040 4435 l0 -35 -152 -2 c-84 -2 -215 -2 -290 0 l-138 3 0 -353 c0
-194 4 -358 8 -364 13 -20 216 -94 264 -97 33 -1 44 -5 41 -15 -4 -10 0 -10
20 -1 36 16 67 -3 67 -41 0 -34 -31 -60 -63 -53 -17 5 -20 3 -10 -7 16 -17 62
-21 84 -7 20 13 25 52 9 77 -16 25 7 37 75 39 49 1 65 -2 65 -12 0 -25 43 -54
80 -53 33 1 35 3 34 33 -1 17 -9 45 -17 62 -13 27 -13 36 0 82 12 41 14 85 9
218 -3 91 -7 175 -9 186 -6 43 -28 105 -35 101 -10 -6 -8 106 2 123 7 10 6 12
-4 6 -10 -6 -12 -1 -7 21 6 34 -11 124 -24 124 -5 0 -9 -16 -9 -35z m-539
-133 c1 -42 3 -69 6 -59 2 9 9 15 14 11 11 -6 39 19 39 36 0 6 4 9 9 6 5 -3
11 12 13 34 3 38 3 39 -32 43 -19 2 -3 4 35 4 39 0 57 -2 40 -6 -26 -4 -23 -6
20 -11 l50 -5 3 -52 3 -53 64 0 63 0 7 50 c8 59 30 67 33 13 4 -65 8 -68 75
-80 34 -6 63 -10 64 -9 1 1 6 38 11 81 l9 80 2 -70 c3 -152 4 -317 3 -467 -2
-136 -4 -158 -18 -158 -10 0 -12 5 -7 13 4 6 6 77 5 157 -1 80 -2 182 -2 228
0 73 -2 83 -17 80 -27 -5 -42 -77 -48 -236 -7 -209 -9 -219 -48 -226 -18 -3
-99 -6 -182 -6 -82 0 -163 -5 -180 -10 -23 -8 -15 -9 40 -5 39 3 84 1 100 -3
l30 -9 -38 -7 c-49 -9 -145 2 -174 20 l-23 14 0 339 c0 186 3 341 6 344 16 16
24 -10 25 -81z m492 -629 c-7 -2 -21 -2 -30 0 -10 3 -4 5 12 5 17 0 24 -2 18
-5z m85 -80 c-2 -10 -10 -18 -18 -18 -8 0 -16 8 -18 18 -2 12 3 17 18 17 15 0
20 -5 18 -17z"/>
<path d="M1988 4183 c7 -3 16 -2 19 1 4 3 -2 6 -13 5 -11 0 -14 -3 -6 -6z"/>
<path d="M1598 3673 c6 -2 18 -2 25 0 6 3 1 5 -13 5 -14 0 -19 -2 -12 -5z"/>
<path d="M2240 4452 c19 -10 37 -17 39 -15 9 7 -14 21 -44 27 -30 6 -30 6 5
-12z"/>
<path d="M4164 4458 c-4 -6 -3 -8 3 -5 11 7 37 -42 28 -51 -3 -4 -8 4 -12 16
-5 22 -33 31 -33 11 0 -5 -6 -7 -12 -3 -7 4 -4 -2 6 -14 20 -23 9 -31 -12 -10
-16 16 -16 -4 1 -21 10 -11 8 -12 -10 -6 -14 4 -23 2 -23 -4 0 -16 36 -13 53
4 8 8 17 12 21 10 3 -3 2 1 -4 7 -17 20 -11 32 8 16 9 -9 23 -13 30 -11 10 4
10 10 -3 29 -9 14 -13 29 -10 34 3 6 -1 10 -9 10 -8 0 -18 -5 -22 -12z"/>
<path d="M2344 4424 c-21 -49 -19 -93 6 -169 12 -35 18 -46 15 -25 -4 19 -10
56 -14 81 -5 29 -3 64 5 95 15 61 10 70 -12 18z"/>
<path d="M670 4440 c-13 -8 -12 -10 3 -10 9 0 17 5 17 10 0 12 -1 12 -20 0z"/>
<path d="M700 4440 c0 -6 7 -10 15 -10 8 0 15 2 15 4 0 2 -7 6 -15 10 -8 3
-15 1 -15 -4z"/>
<path d="M3180 4411 c-17 -52 -9 -69 14 -30 10 18 14 29 7 25 -8 -6 -10 0 -5
18 10 40 -1 31 -16 -13z"/>
<path d="M600 4421 c0 -5 -8 -12 -17 -14 -10 -3 15 -5 55 -6 42 -1 72 3 72 9
0 6 -16 8 -36 5 -20 -2 -45 0 -55 6 -12 6 -19 6 -19 0z"/>
<path d="M2264 4398 c-4 -7 -3 -8 4 -4 7 4 17 -6 26 -26 l15 -33 -6 30 c-9 47
-23 59 -39 33z"/>
<path d="M2820 4400 c-9 -6 -10 -10 -3 -10 6 0 15 5 18 10 8 12 4 12 -15 0z"/>
<path d="M2261 4354 c21 -26 20 -46 -2 -39 -25 8 -24 1 4 -26 12 -12 15 -18 7
-14 -13 8 -13 6 -1 -8 7 -9 17 -14 22 -11 5 3 8 2 7 -3 -2 -4 8 -19 20 -31 20
-20 23 -21 19 -5 -3 10 -8 34 -11 53 -3 19 -20 50 -37 68 -31 33 -52 45 -28
16z"/>
<path d="M2800 4340 c-6 -11 -7 -20 -2 -20 5 0 17 9 27 20 16 18 16 20 2 20
-9 0 -21 -9 -27 -20z"/>
<path d="M4100 4341 l25 -7 -25 -7 c-13 -3 -21 -9 -18 -13 10 -10 49 7 45 19
-2 7 -14 13 -28 14 l-24 2 25 -8z"/>
<path d="M2549 4323 c-13 -16 -12 -17 4 -4 9 7 17 15 17 17 0 8 -8 3 -21 -13z"/>
<path d="M2746 4315 c8 -37 10 -39 17 -21 3 8 -1 22 -9 33 -13 17 -14 16 -8
-12z"/>
<path d="M4315 4321 c-3 -6 3 -15 14 -21 13 -7 22 -7 26 0 3 5 -1 10 -10 10
-9 0 -13 5 -10 10 3 6 2 10 -4 10 -5 0 -12 -4 -16 -9z"/>
<path d="M4290 4305 c15 -18 -1 -20 -19 -2 -10 10 -11 8 -6 -8 6 -19 6 -19 -8
-2 -15 18 -15 18 -22 -2 -4 -12 -11 -18 -17 -15 -8 5 -9 1 -4 -11 5 -15 4 -16
-8 -6 -18 15 -37 6 -30 -13 3 -7 -2 -19 -11 -26 -13 -11 -15 -9 -15 9 0 12 4
20 8 17 4 -2 8 4 9 14 1 13 -3 16 -20 12 -12 -3 -16 -7 -9 -10 10 -3 10 -9 -2
-27 -14 -21 -14 -23 3 -28 10 -2 25 -1 32 4 8 4 19 3 26 -3 9 -7 13 -7 13 0 0
6 -4 14 -10 17 -5 3 -10 11 -10 17 0 7 6 6 15 -2 8 -7 15 -9 15 -4 0 5 7 0 15
-10 13 -17 15 -17 15 -4 0 9 -4 20 -10 23 -5 3 -10 11 -10 16 0 6 12 -3 26
-18 17 -19 24 -22 20 -10 -3 11 -1 17 7 16 24 -3 38 1 33 10 -3 5 -15 7 -26 4
-12 -3 -20 0 -20 7 0 7 7 10 15 6 8 -3 15 0 15 6 0 9 3 9 12 0 24 -24 31 -12
8 13 -25 27 -51 35 -30 10z m-29 -37 c11 -21 11 -22 -4 -9 -10 7 -17 17 -17
22 0 15 9 10 21 -13z"/>
<path d="M2495 4300 c3 -5 8 -10 11 -10 2 0 4 5 4 10 0 6 -5 10 -11 10 -5 0
-7 -4 -4 -10z"/>
<path d="M3991 4294 c0 -11 3 -14 6 -6 3 7 2 16 -1 19 -3 4 -6 -2 -5 -13z"/>
<path d="M4100 4298 c-15 -6 -20 -12 -12 -15 6 -3 9 -10 5 -16 -3 -7 -2 -8 3
-4 5 5 8 11 6 14 -2 3 5 11 15 19 21 16 17 17 -17 2z"/>
<path d="M2530 4256 c0 -8 -3 -23 -6 -33 -6 -15 -3 -14 15 4 25 26 26 29 6 37
-9 3 -15 0 -15 -8z"/>
<path d="M2502 4240 c0 -14 2 -19 5 -12 2 6 2 18 0 25 -3 6 -5 1 -5 -13z"/>
<path d="M4100 4250 c-9 -6 -10 -10 -3 -10 6 0 15 5 18 10 8 12 4 12 -15 0z"/>
<path d="M3582 4241 l-23 -6 28 -37 c15 -20 38 -42 50 -49 26 -14 55 -124 52
-198 -3 -55 -35 -170 -55 -192 -8 -8 -14 -19 -14 -24 0 -17 -76 -78 -120 -97
-54 -24 -70 -26 -178 -28 -67 -2 -82 -5 -78 -16 20 -49 20 -47 -5 -34 -47 23
61 -68 135 -114 76 -48 147 -68 200 -58 61 11 199 8 203 -5 4 -10 -16 -13 -76
-13 -76 0 -83 -2 -112 -29 -27 -26 -28 -30 -11 -28 12 0 19 4 16 8 -8 13 17
21 89 29 l71 8 49 -38 c62 -49 100 -59 136 -33 35 27 37 61 7 121 l-25 50 29
37 c17 21 30 44 30 52 0 7 7 16 15 19 10 4 15 20 15 48 0 22 6 67 14 99 7 31
10 60 5 63 -5 2 -8 20 -7 39 1 22 -13 61 -37 110 -62 122 -258 305 -327 305
-11 0 -27 4 -36 8 -9 5 -27 6 -40 3z m252 -797 c9 -3 16 -15 16 -25 0 -24 -29
-37 -40 -19 -6 10 -9 8 -13 -6 -4 -14 -5 -13 -6 7 0 14 4 30 11 37 14 14 12
14 32 6z"/>
<path d="M2554 4206 c-18 -18 -36 -31 -39 -28 -3 3 -5 0 -5 -5 0 -6 6 -13 13
-16 8 -3 4 -13 -12 -31 -41 -44 -17 -39 30 6 24 24 51 52 59 63 13 17 13 18 0
10 -8 -4 -25 -17 -37 -28 -40 -36 -36 -11 4 27 21 20 34 36 30 36 -5 0 -24
-15 -43 -34z"/>
<path d="M4222 4210 c0 -14 2 -19 5 -12 2 6 2 18 0 25 -3 6 -5 1 -5 -13z"/>
<path d="M2487 4193 c-4 -3 -7 -11 -7 -17 0 -6 5 -5 12 2 6 6 9 14 7 17 -3 3
-9 2 -12 -2z"/>
<path d="M2437 4125 c4 -27 7 -63 6 -80 -1 -25 2 -21 17 20 10 28 18 57 18 65
0 8 -6 -1 -13 -20 l-13 -35 -1 35 c-1 19 -6 42 -12 50 -7 11 -8 0 -2 -35z"/>
<path d="M3942 4150 c-7 -11 -21 -20 -33 -20 -11 0 -17 -4 -14 -10 3 -5 17
-10 31 -10 26 0 38 17 32 45 -2 13 -5 12 -16 -5z"/>
<path d="M2212 4141 c9 -15 9 -23 -1 -35 -19 -23 -39 -20 -44 7 -3 20 -4 20
-12 -7 -12 -42 5 -78 50 -104 44 -25 86 -23 116 4 17 15 17 19 2 58 -22 57
-60 96 -95 96 -25 0 -27 -2 -16 -19z"/>
<path d="M3530 4133 c0 -7 -9 -13 -20 -13 -25 0 -36 -25 -20 -45 32 -38 87 -2
75 48 -7 25 -35 33 -35 10z"/>
<path d="M706 4114 c7 -35 -18 -69 -43 -60 -8 3 -18 6 -23 6 -5 0 -13 12 -18
28 -9 24 -10 25 -11 5 -2 -52 77 -84 114 -47 19 19 13 59 -11 84 -13 13 -14
11 -8 -16z"/>
<path d="M2536 4105 c-22 -19 -44 -31 -50 -28 -6 3 -8 3 -4 -1 3 -4 0 -19 -8
-34 -29 -56 -5 -37 81 66 34 41 30 40 -19 -3z"/>
<path d="M4566 4076 c9 -24 -24 -58 -50 -51 -21 6 -21 6 -2 -9 24 -19 48 -20
64 -4 17 17 15 53 -3 68 -13 11 -14 10 -9 -4z"/>
<path d="M495 4047 c24 -57 19 -139 -11 -203 -26 -54 -58 -86 -124 -120 -46
-23 -160 -24 -215 -1 l-40 17 25 -20 c46 -36 130 -62 206 -62 39 -1 76 2 82 5
5 4 12 -6 15 -23 4 -18 20 -38 44 -54 107 -73 145 31 44 123 -26 23 -26 23 -3
18 19 -5 21 -3 11 9 -9 11 -9 14 0 14 7 0 20 19 30 41 18 40 21 94 8 160 -6
30 -46 98 -71 118 -15 12 -15 11 -1 -22z m5 -362 c0 -9 -10 -19 -22 -24 -25
-9 -34 0 -24 24 7 20 46 19 46 0z"/>
<path d="M970 4069 c0 -5 5 -7 10 -4 6 3 10 1 10 -5 0 -6 5 -8 11 -4 8 4 7 9
-2 15 -19 12 -29 11 -29 -2z"/>
<path d="M4090 4001 c0 -30 -32 -44 -58 -25 -12 8 -22 10 -22 5 0 -6 11 -18
24 -26 33 -22 76 -5 76 29 0 14 -4 28 -10 31 -5 3 -10 -3 -10 -14z"/>
<path d="M659 4004 c-1 -5 0 -20 1 -32 1 -22 -1 -23 -28 -17 -24 5 -30 2 -35
-14 -7 -28 53 -81 93 -81 31 0 60 22 60 46 0 21 -39 94 -49 94 -5 0 -16 3 -25
6 -9 3 -16 2 -17 -2z"/>
<path d="M2464 3695 c0 -126 2 -177 3 -112 2 65 2 168 0 230 -1 62 -3 9 -3
-118z"/>
<path d="M2233 3879 c21 -12 22 -26 3 -45 -30 -30 -64 -2 -38 32 4 5 -1 1 -10
-9 -34 -37 -21 -75 39 -115 77 -54 143 -5 101 74 -25 48 -55 74 -88 73 -22 0
-23 -1 -7 -10z"/>
<path d="M2907 3844 c-3 -4 -2 -15 3 -24 10 -19 -4 -30 -41 -30 -12 0 -19 -7
-19 -19 0 -29 39 -71 65 -71 13 0 26 -4 30 -9 9 -16 63 8 69 32 6 23 -17 78
-42 100 -21 18 -56 29 -65 21z"/>
<path d="M4595 3755 c29 -72 30 -80 9 -164 -47 -189 -226 -295 -398 -236 -22
8 -42 13 -43 11 -2 -2 14 -14 34 -28 59 -38 137 -60 219 -61 64 0 82 4 139 33
37 19 71 43 77 54 6 12 14 23 18 26 3 3 16 28 28 57 33 77 30 156 -7 227 -16
30 -34 61 -40 68 -6 7 -22 27 -35 43 l-25 30 24 -60z"/>
<path d="M4845 3771 c-3 -5 -1 -12 5 -16 5 -3 10 1 10 9 0 18 -6 21 -15 7z"/>
<path d="M735 3678 c-8 -27 -15 -34 -42 -36 -41 -4 -42 -17 -4 -30 57 -20 103
34 69 81 -12 17 -14 15 -23 -15z"/>
<path d="M4996 3658 c12 -53 -18 -86 -71 -79 -16 2 -17 0 -8 -10 7 -7 32 -13
55 -13 43 -1 43 -1 46 36 2 21 -4 49 -12 65 l-16 28 6 -27z"/>
<path d="M814 3609 c-8 -17 -16 -55 -17 -85 l-1 -54 -41 -1 c-31 0 -36 -2 -20
-9 32 -14 127 -10 160 5 24 12 25 13 5 8 -14 -4 -36 -7 -50 -7 -22 -1 -25 3
-28 41 -2 27 4 55 17 81 19 37 19 52 0 52 -5 0 -16 -14 -25 -31z"/>
<path d="M235 3574 c-4 -27 -11 -73 -15 -102 -5 -29 -7 -67 -4 -85 3 -19 -5
-7 -21 33 -30 76 -47 111 -52 106 -2 -2 3 -21 11 -42 21 -57 28 -94 17 -94 -6
0 -8 -7 -4 -16 5 -12 7 -13 14 -3 4 8 6 -10 3 -40 -5 -61 6 -81 46 -81 21 0
29 -6 34 -25 4 -14 5 -29 2 -33 -4 -7 -14 -101 -22 -205 -14 -185 -3 -431 26
-586 9 -49 7 -57 -9 -46 -13 7 -45 76 -42 89 1 4 -3 13 -8 20 -12 14 -35 97
-32 114 1 6 -3 12 -10 12 -6 0 -9 6 -6 14 3 7 2 17 -3 22 -5 5 -11 32 -15 59
-3 28 -11 89 -18 138 -7 48 -12 95 -11 104 2 10 -2 21 -9 25 -9 6 -8 8 2 8 11
0 11 3 1 15 -9 11 -9 15 -1 15 7 0 9 5 4 13 -10 16 -11 77 -2 104 5 14 4 24
-4 27 -9 5 -9 7 1 12 6 3 9 11 5 17 -4 7 -6 28 -5 47 l3 35 -20 -25 c-20 -24
-29 -56 -13 -47 4 3 7 -53 7 -124 0 -71 -3 -129 -7 -129 -5 0 -8 -15 -7 -32 0
-28 2 -30 9 -13 6 13 7 2 3 -29 -4 -31 -3 -47 4 -43 6 4 9 -11 9 -36 -1 -40
27 -161 69 -297 41 -130 103 -227 182 -281 57 -40 78 -39 68 4 -4 17 -9 68
-11 112 -4 82 0 85 34 29 14 -23 86 -64 112 -64 15 0 35 9 46 21 l19 21 6 -24
c6 -20 7 -19 8 10 1 18 -3 40 -8 50 -6 9 -12 29 -15 44 -8 38 -52 85 -86 93
-37 8 -96 -25 -104 -58 -16 -73 18 365 36 456 6 32 8 95 5 139 -4 69 -11 93
-43 152 -20 39 -42 81 -48 93 -10 21 -35 29 -74 24 -31 -5 22 92 85 154 l38
38 -40 -28 c-22 -16 -55 -44 -72 -63 -18 -19 -33 -32 -33 -28 0 3 18 47 41 98
22 51 43 102 45 113 l5 20 -12 -20 c-7 -11 -32 -62 -55 -113 l-42 -94 -7 54
c-4 29 -2 82 5 117 7 42 8 67 1 74 -6 6 -12 -7 -16 -39z m9 -306 c-7 -12 -44
-10 -44 2 0 5 11 9 24 8 14 -1 22 -6 20 -10z m-127 -560 c-3 -8 -6 -5 -6 6 -1
11 2 17 5 13 3 -3 4 -12 1 -19z m395 -263 c-8 -45 -65 -67 -70 -27 -5 32 16
54 47 50 20 -2 25 -8 23 -23z"/>
<path d="M1350 3599 c-33 -14 -40 -26 -40 -80 0 -41 4 -51 35 -78 42 -36 78
-47 114 -35 42 15 49 54 21 114 -13 27 -31 56 -39 64 -23 20 -62 27 -91 15z
m45 -19 c10 -16 -20 -56 -45 -63 -29 -7 -37 17 -16 48 17 26 50 33 61 15z"/>
<path d="M2940 3540 c0 -25 -27 -27 -34 -2 -3 10 -4 7 -3 -7 2 -22 -4 -26 -63
-42 -36 -9 -86 -26 -112 -38 -25 -12 -54 -18 -63 -15 -14 6 -16 3 -10 -14 4
-16 2 -22 -8 -22 -9 0 -18 6 -20 13 -4 7 -6 6 -6 -5 -1 -20 -47 -58 -70 -58
-9 1 -32 21 -51 46 -29 37 -36 41 -38 24 -4 -23 -32 -28 -32 -6 0 9 -33 27
-82 47 -155 60 -278 50 -434 -36 -73 -41 -157 -114 -131 -115 9 0 17 -7 17
-15 0 -18 -30 -20 -30 -2 -1 6 -10 -12 -20 -42 -11 -30 -25 -58 -32 -63 -10
-6 -10 -10 1 -17 7 -5 10 -14 7 -20 -11 -16 -24 -13 -28 7 -2 9 -5 -10 -5 -43
-1 -33 -6 -73 -13 -90 -8 -20 -8 -31 -1 -33 17 -6 13 -32 -4 -32 -8 0 -15 6
-15 13 0 8 -2 9 -8 1 -4 -7 -16 -14 -27 -17 -19 -4 -19 -5 1 -6 37 -2 46 -25
42 -104 -2 -46 1 -78 8 -85 6 -5 14 -36 18 -68 4 -32 11 -63 17 -70 14 -16 2
-37 -17 -30 -8 3 -14 1 -14 -5 0 -5 7 -12 15 -15 17 -7 65 -89 65 -111 0 -9 9
-25 19 -37 79 -87 99 -125 69 -127 -7 0 -2 -5 12 -10 14 -5 36 -25 50 -45 13
-20 36 -48 51 -62 15 -14 25 -30 23 -34 -3 -5 23 -38 58 -74 35 -36 63 -73 63
-82 0 -26 91 -105 115 -99 17 4 19 1 14 -18 -3 -12 -1 -26 5 -30 6 -3 9 -10 6
-14 -2 -5 17 -20 43 -34 27 -14 56 -35 67 -47 10 -11 24 -20 31 -20 7 0 14 -5
16 -11 2 -5 30 -22 63 -35 72 -31 182 -42 240 -24 22 6 56 14 75 16 19 3 46
13 60 23 14 10 40 26 59 35 33 18 58 38 155 128 57 53 133 87 204 90 26 1 -20
5 -103 8 -179 6 -200 22 -40 31 61 3 100 6 88 7 -13 1 -23 6 -23 10 0 16 89
92 107 92 14 0 15 2 5 9 -14 8 32 19 93 22 l30 1 -30 8 c-16 4 -81 8 -142 9
-62 0 -113 5 -113 10 0 5 43 12 95 16 56 4 92 11 89 17 -11 18 76 82 126 93
30 7 32 9 15 16 -11 4 -55 8 -97 8 -42 1 -79 5 -82 10 -6 10 50 21 106 21 21
0 37 4 35 9 -4 17 65 73 99 78 61 10 36 22 -53 25 -100 3 -115 20 -26 29 32 3
50 6 40 7 -16 2 -16 4 -3 30 17 32 51 62 70 62 8 0 24 9 37 21 l24 21 -25 -16
c-24 -16 -94 -21 -124 -10 -30 11 -16 24 27 25 23 1 35 3 26 6 -17 4 -17 26 1
68 5 11 11 32 14 48 4 18 17 32 39 41 l32 14 -46 1 c-69 1 -139 13 -139 22 0
5 30 9 68 9 51 1 63 3 49 11 -10 6 -14 15 -10 22 4 7 8 14 8 17 4 29 20 50 38
52 12 0 2 4 -23 7 -38 5 -45 9 -42 26 1 11 3 44 4 73 2 56 2 56 73 65 17 2 -5
5 -47 6 -71 1 -105 13 -81 30 13 9 10 20 -15 68 -12 23 -22 49 -22 58 0 8 -6
15 -14 15 -8 0 -34 20 -59 44 -80 80 -195 143 -302 167 -45 10 -59 18 -71 41
-17 33 -24 35 -24 8z m-740 -80 c-13 -8 -9 -150 6 -218 9 -43 24 -48 155 -51
82 -2 115 2 138 13 36 19 67 20 78 3 5 -8 20 -10 43 -6 29 5 31 7 10 9 -14 1
-31 2 -37 1 -21 -3 -15 8 21 40 19 17 34 36 32 42 -1 7 -1 9 1 4 3 -4 9 -5 13
-2 5 3 0 20 -10 38 -24 39 -25 47 -5 47 9 0 28 9 43 19 26 19 114 51 177 65
22 5 26 4 15 -4 -23 -15 2 -11 30 5 14 8 29 14 34 15 8 0 5 -68 -11 -212 l-6
-58 99 -2 99 -2 -98 -3 -98 -4 3 -67 3 -67 83 -3 c45 -2 82 1 82 6 0 4 7 17
15 28 14 18 15 17 6 -8 -9 -23 -7 -27 12 -31 20 -4 19 -4 -3 -6 -15 0 -32 -7
-39 -13 -11 -11 -12 -10 -6 0 6 11 -8 13 -70 11 l-77 -3 29 -23 c15 -13 33
-23 38 -23 6 0 -1 9 -15 20 -14 11 -21 20 -16 20 5 0 24 -12 43 -26 33 -25 35
-25 49 -8 14 18 15 18 9 -2 -5 -19 -1 -22 34 -26 48 -4 51 2 51 108 0 54 -4
73 -15 78 -9 3 -14 18 -13 39 1 19 -2 40 -6 48 -4 8 -1 6 7 -3 8 -10 21 -18
29 -18 21 0 38 -21 38 -47 0 -14 -6 -23 -15 -23 -12 0 -15 -16 -15 -80 0 -64
3 -80 15 -80 9 0 12 -6 8 -16 -3 -8 5 -27 18 -42 l24 -27 -26 23 c-33 29 -39
28 -39 -9 0 -20 8 -37 23 -49 21 -18 21 -20 5 -36 -22 -22 -50 -11 -46 18 2
17 -7 31 -36 53 -22 16 -49 28 -59 27 -10 -2 -24 1 -30 6 -7 4 -31 10 -54 11
l-43 3 1 -79 1 -79 46 1 47 1 3 57 c2 34 7 55 13 52 5 -4 6 -11 3 -17 -5 -8
-1 -9 12 -5 18 7 18 6 1 -7 -13 -10 -17 -24 -15 -48 3 -32 5 -33 46 -34 23 -1
42 3 42 8 0 5 -14 34 -31 64 -17 31 -28 58 -26 61 5 4 16 -13 57 -92 12 -25
23 -31 60 -36 37 -5 39 -6 13 -7 l-33 -2 0 -90 0 -90 56 0 c39 0 60 5 68 15 9
12 11 8 12 -20 l1 -35 -94 0 c-84 0 -93 -2 -93 -19 0 -23 -77 -94 -92 -85 -6
4 -8 3 -5 -3 7 -10 -58 -76 -81 -84 -7 -2 -14 -19 -16 -37 -3 -32 -16 -58 -16
-34 0 7 -17 12 -44 12 -38 0 -45 -3 -48 -22 -5 -32 -28 -35 -28 -4 0 24 -3 26
-45 26 l-45 0 0 -49 c0 -28 7 -62 17 -79 14 -25 15 -32 4 -46 -15 -18 -47 -21
-56 -6 -4 6 -11 8 -17 4 -5 -3 -3 8 6 24 9 17 20 34 26 37 5 3 10 31 10 61 l0
54 -67 0 -68 0 60 -55 c70 -64 69 -73 -1 -15 -26 21 -51 37 -54 35 -11 -7 -11
-123 0 -130 5 -3 10 -17 10 -29 0 -32 -44 -31 -48 2 -2 12 1 22 7 22 7 0 11
28 11 75 l0 75 -65 -32 -65 -32 0 -108 c0 -120 -6 -111 75 -109 22 0 33 -2 25
-5 -81 -29 -109 -51 -94 -75 3 -5 -4 -5 -18 0 -15 6 -31 5 -44 -1 -11 -7 -6 3
13 24 32 32 32 35 15 53 -16 18 -16 18 1 5 17 -13 18 -8 15 93 -2 59 -6 107
-10 107 -4 0 -38 -12 -74 -27 -57 -22 -64 -28 -46 -34 12 -5 22 -11 22 -13 0
-3 -7 -3 -15 0 -8 4 -15 1 -15 -4 0 -6 -7 -18 -16 -26 -12 -12 -20 -13 -35 -6
-23 13 -25 43 -4 60 11 9 15 32 15 82 l0 69 -27 -3 c-20 -2 -29 -9 -31 -25 -2
-13 -7 -23 -12 -23 -8 0 -30 85 -30 116 0 8 -4 13 -8 10 -9 -6 -123 107 -140
139 -6 11 -12 14 -12 7 0 -7 -4 -10 -10 -7 -5 3 -10 3 -11 -2 -14 -129 -4
-175 60 -273 10 -15 11 -21 3 -16 -6 4 -19 20 -27 35 -10 20 -24 30 -45 33
-16 3 -30 1 -30 -4 0 -4 -7 -8 -15 -8 -18 0 -20 16 -2 27 26 17 37 55 37 129
l0 76 -50 -37 c-27 -20 -50 -32 -50 -26 0 6 3 11 8 11 4 0 27 18 50 38 l44 38
-39 2 c-21 2 -45 5 -54 7 -10 4 -21 -5 -29 -22 l-14 -28 -4 30 c-2 16 -11 34
-20 41 -14 10 -15 14 -2 30 14 16 13 17 -5 11 -18 -6 -19 -6 -3 6 15 12 15 17
4 33 -7 10 -16 28 -19 39 -8 23 33 -23 61 -68 13 -22 23 -27 47 -25 16 1 33 7
38 13 4 6 11 5 17 -5 7 -10 10 12 10 73 l0 87 -90 0 c-49 0 -90 4 -90 8 0 4
41 6 90 4 l90 -4 0 77 c0 48 4 74 10 70 6 -3 10 -37 10 -74 l0 -69 51 2 52 1
14 49 c19 63 53 100 53 59 1 -23 30 -63 31 -42 0 8 7 1 15 -16 l15 -30 -6 29
c-6 27 -4 28 22 23 27 -5 28 -4 28 36 0 23 -4 45 -10 49 -5 4 -61 8 -122 8
-63 0 -113 4 -113 9 0 6 52 8 125 6 l125 -3 0 34 0 34 -95 0 c-88 0 -98 -2
-133 -27 -20 -16 -37 -35 -37 -43 0 -21 -36 -25 -50 -7 -7 10 -35 19 -77 23
-74 7 -70 13 -84 -100 -4 -41 -3 -57 4 -55 6 2 43 32 82 67 38 35 70 59 70 53
0 -5 -26 -31 -57 -58 -32 -26 -66 -56 -77 -65 -17 -16 -20 -16 -31 -1 -11 14
-5 100 10 140 2 7 0 15 -5 18 -6 4 -10 1 -10 -6 0 -7 -3 -10 -6 -7 -3 3 0 34
7 68 8 43 15 58 21 48 7 -9 8 -4 4 14 -5 22 -3 25 14 21 15 -4 18 -9 10 -18
-7 -8 -6 -12 4 -12 19 0 14 24 -9 41 -17 12 -17 17 -5 45 13 32 35 56 23 25
-6 -17 -5 -17 17 -1 14 9 31 17 40 17 13 0 13 -1 0 -10 -9 -6 -10 -10 -3 -10
24 0 23 20 -1 31 -21 10 -24 16 -19 43 9 47 21 64 56 82 32 17 32 16 15 -3
-10 -11 -18 -24 -18 -30 0 -22 33 -113 42 -113 9 0 47 59 113 175 l40 70 60 5
c66 6 94 2 75 -10z m883 -137 c5 -7 7 -13 4 -13 -7 0 -107 135 -107 145 0 4
21 -21 46 -56 26 -35 51 -70 57 -76z m-790 67 c29 -26 63 -58 77 -70 l25 -22
-30 21 c-34 23 -157 136 -137 125 8 -3 37 -28 65 -54z m787 35 c14 -8 21 -14
15 -14 -5 0 -21 6 -35 14 -14 8 -20 14 -15 14 6 0 21 -6 35 -14z m-1130 -25
c-14 -11 -29 -20 -35 -20 -5 0 4 9 20 20 38 25 48 25 15 0z m469 -112 c-10
-19 -8 -25 15 -45 15 -13 23 -23 19 -23 -5 0 -14 5 -20 11 -16 16 -47 3 -39
-16 3 -8 3 -15 0 -15 -3 0 -10 13 -15 29 -9 26 -18 30 -92 47 -45 10 -74 20
-65 22 9 2 43 -4 76 -13 61 -15 101 -10 117 14 12 20 16 11 4 -11z m935 7 c4
-10 -1 -15 -16 -15 -17 0 -18 2 -8 15 7 8 14 15 15 15 2 0 5 -7 9 -15z m-243
-12 c13 -16 12 -17 -3 -4 -17 13 -22 21 -14 21 2 0 10 -8 17 -17z m188 -17
c-10 -9 -89 -46 -89 -41 0 6 72 44 84 45 5 0 7 -2 5 -4z m-158 -139 c-10 -9
-11 -8 -5 6 3 10 9 15 12 12 3 -3 0 -11 -7 -18z m287 5 c2 -7 -3 -12 -12 -12
-9 0 -16 7 -16 16 0 17 22 14 28 -4z m52 -167 c0 -8 -7 -15 -15 -15 -8 0 -15
7 -15 15 0 8 7 15 15 15 8 0 15 -7 15 -15z m-219 -62 c13 -16 12 -17 -3 -4
-17 13 -22 21 -14 21 2 0 10 -8 17 -17z m47 -48 c-3 -3 -9 2 -12 12 -6 14 -5
15 5 6 7 -7 10 -15 7 -18z m-1598 -39 c0 -8 -4 -17 -9 -21 -12 -7 -24 12 -16
25 9 15 25 12 25 -4z m1610 -12 c0 -18 -4 -18 -24 5 -17 19 -17 19 3 14 12 -3
21 -12 21 -19z m70 11 c0 -8 -7 -15 -15 -15 -8 0 -15 7 -15 15 0 8 7 15 15 15
8 0 15 -7 15 -15z m30 -200 c0 -8 -7 -15 -15 -15 -16 0 -20 12 -8 23 11 12 23
8 23 -8z m-210 -86 l35 -31 -34 22 c-27 19 -35 20 -42 9 -6 -11 -9 -8 -9 9 0
29 8 28 50 -9z m-24 -151 c21 -22 14 -52 -13 -56 -30 -4 -53 36 -29 53 11 9
17 30 18 76 l2 64 3 -60 c3 -35 10 -67 19 -77z m-1388 94 c2 -7 -3 -12 -12
-12 -9 0 -16 7 -16 16 0 17 22 14 28 -4z m1562 -7 c0 -8 -7 -15 -15 -15 -16 0
-20 12 -8 23 11 12 23 8 23 -8z m-1240 -126 c0 -5 -34 -9 -75 -9 -98 0 -98 15
0 17 41 0 75 -3 75 -8z m887 -56 c12 -9 13 -13 4 -13 -8 0 -20 -8 -27 -17 -13
-17 -13 -17 -14 0 0 9 -8 17 -17 17 -17 1 -17 1 0 11 9 5 17 22 18 37 l0 27
10 -25 c5 -14 17 -31 26 -37z m239 30 c-10 -10 -19 5 -10 18 6 11 8 11 12 0 2
-7 1 -15 -2 -18z m-1222 -22 c-2 -3 -12 3 -22 13 -16 17 -16 18 5 5 12 -7 20
-15 17 -18z m747 6 c-10 -9 -11 -8 -5 6 3 10 9 15 12 12 3 -3 0 -11 -7 -18z
m-691 -33 c0 -2 -9 0 -20 6 -11 6 -20 13 -20 16 0 2 9 0 20 -6 11 -6 20 -13
20 -16z m669 -17 c-2 -1 -13 -9 -24 -17 -19 -14 -19 -14 -6 3 7 9 18 17 24 17
6 0 8 -1 6 -3z m148 -59 c-3 -8 -6 -5 -6 6 -1 11 2 17 5 13 3 -3 4 -12 1 -19z
m-867 -22 c0 -21 -21 -31 -30 -15 -5 7 -6 17 -4 21 9 14 34 9 34 -6z m1065
-16 c-5 -8 -11 -8 -17 -2 -6 6 -7 16 -3 22 5 8 11 8 17 2 6 -6 7 -16 3 -22z
m-187 -13 c3 -27 -4 -32 -32 -21 -19 7 -21 40 -3 47 21 9 32 1 35 -26z m-735
-52 c-10 -13 -22 -25 -27 -25 -5 0 1 11 14 25 30 32 36 32 13 0z m168 -21 c9
-11 2 -9 -18 6 -18 13 -33 25 -33 27 0 8 38 -17 51 -33z m148 7 c-7 -10 -21
-24 -33 -31 -15 -9 -12 -3 8 19 34 35 41 39 25 12z m222 -27 c6 -8 4 -18 -6
-28 -15 -15 -18 -15 -33 0 -14 15 -14 18 0 28 15 11 17 15 19 39 1 6 4 3 6 -8
3 -11 9 -25 14 -31z m-462 -38 c2 -45 -6 -27 -12 29 -4 34 -3 42 3 25 4 -14 8
-38 9 -54z m-99 -7 c0 -5 -7 -9 -15 -9 -9 0 -15 9 -15 21 0 18 2 19 15 9 8 -7
15 -16 15 -21z m405 -17 c-1 -34 -5 -47 -15 -47 -8 0 -15 6 -14 13 1 6 2 28 3
47 2 56 26 44 26 -13z m417 -4 c-15 -15 -26 -4 -18 18 5 13 9 15 18 6 9 -9 9
-15 0 -24z m-683 -28 c31 0 25 -5 -16 -13 -27 -5 -31 -3 -30 13 1 13 5 16 11
10 6 -6 21 -10 35 -10z m263 -102 c-16 -16 -37 4 -28 28 6 16 8 16 23 1 13
-13 15 -19 5 -29z m148 -72 c0 -17 -14 -29 -23 -20 -8 8 3 34 14 34 5 0 9 -6
9 -14z m-290 -16 c0 -11 -7 -20 -15 -20 -15 0 -21 21 -8 33 12 13 23 7 23 -13z"/>
<path d="M2845 3440 c3 -5 8 -10 11 -10 2 0 4 5 4 10 0 6 -5 10 -11 10 -5 0
-7 -4 -4 -10z"/>
<path d="M2645 3250 c-16 -16 -23 -30 -17 -30 7 0 12 6 12 13 0 8 4 7 10 -3 8
-12 10 -12 11 5 l0 20 9 -20 c7 -17 9 -15 9 13 1 17 0 32 -2 32 -2 0 -16 -13
-32 -30z"/>
<path d="M1776 3188 c-19 -10 -19 -11 -1 -24 25 -18 62 0 44 22 -14 17 -18 17
-43 2z m33 -18 c-7 -5 -19 -6 -26 -3 -11 5 -12 8 -2 13 7 5 19 6 26 3 11 -5
12 -8 2 -13z"/>
<path d="M2266 3153 c71 -68 90 -81 105 -73 10 6 13 22 11 54 l-4 46 -58 0
c-32 0 -67 3 -77 6 -10 3 0 -11 23 -33z"/>
<path d="M2443 3183 l-43 -4 0 -46 0 -46 23 19 c69 57 95 88 70 82 -5 -1 -27
-3 -50 -5z"/>
<path d="M2875 3180 c-3 -5 -2 -10 4 -10 5 0 8 -8 7 -17 -2 -12 -10 -17 -24
-15 -11 2 -24 -3 -28 -9 -5 -9 -2 -10 11 -6 9 4 24 2 32 -4 18 -16 32 -2 37
39 3 26 0 32 -15 32 -10 0 -21 -4 -24 -10z"/>
<path d="M1840 3175 c0 -7 30 -13 34 -7 3 4 -4 9 -15 9 -10 1 -19 0 -19 -2z"/>
<path d="M2159 3149 c-24 -16 -59 -40 -76 -52 -18 -12 -33 -25 -33 -29 0 -9
85 -10 127 -2 29 6 30 9 32 60 1 30 0 54 -2 54 -2 0 -24 -14 -48 -31z"/>
<path d="M2225 3140 c4 -19 11 -36 16 -38 5 -2 9 -8 9 -13 0 -6 -5 -7 -12 -3
-7 4 -8 3 -4 -4 4 -7 27 -12 52 -12 30 0 43 4 39 11 -4 6 -13 8 -21 5 -8 -3
-13 0 -11 7 1 7 -4 11 -11 9 -8 -1 -11 1 -8 6 3 5 -9 22 -25 38 l-31 29 7 -35z"/>
<path d="M2846 3161 c-3 -5 3 -11 15 -14 16 -4 18 -3 8 9 -13 16 -16 17 -23 5z"/>
<path d="M2455 3114 c-27 -24 -44 -44 -37 -44 6 0 14 5 17 11 4 6 13 8 21 5 9
-3 11 0 7 11 -5 12 -3 14 7 8 9 -6 11 -4 6 6 -6 10 -4 10 6 -1 18 -21 38 -23
38 -4 0 8 4 13 9 10 5 -4 7 3 4 13 -9 34 -27 30 -78 -15z"/>
<path d="M2559 3147 c-11 -8 -14 -18 -8 -32 8 -20 8 -20 8 1 1 11 6 25 13 32
15 15 8 15 -13 -1z"/>
<path d="M2597 3129 c7 -7 15 -10 18 -7 3 3 -2 9 -12 12 -14 6 -15 5 -6 -5z"/>
<path d="M2895 3100 c-11 -5 -35 -9 -54 -9 -45 -1 -37 -7 18 -14 29 -4 40 -2
30 4 -12 7 -11 9 3 9 9 0 20 5 23 10 7 11 7 11 -20 0z"/>
<path d="M2645 3080 c3 -5 11 -10 16 -10 6 0 7 5 4 10 -3 6 -11 10 -16 10 -6
0 -7 -4 -4 -10z"/>
<path d="M2745 3079 c-4 -6 -4 -13 -1 -16 3 -4 6 -1 6 6 0 7 5 9 12 5 7 -4 8
-3 4 4 -9 15 -13 15 -21 1z"/>
<path d="M2468 3043 c6 -2 18 -2 25 0 6 3 1 5 -13 5 -14 0 -19 -2 -12 -5z"/>
<path d="M2550 3042 c0 -5 14 -7 30 -4 17 2 30 6 30 8 0 2 -13 4 -30 4 -16 0
-30 -4 -30 -8z"/>
<path d="M2740 3040 c0 -6 -10 -15 -22 -20 l-23 -9 23 0 c12 -1 25 6 29 15 5
13 7 13 14 2 7 -10 9 -9 9 5 0 9 -7 17 -15 17 -8 0 -15 -5 -15 -10z"/>
<path d="M2808 3043 c18 -2 45 -2 60 0 15 2 0 4 -33 4 -33 0 -45 -2 -27 -4z"/>
<path d="M2232 3020 c0 -14 2 -19 5 -12 2 6 2 18 0 25 -3 6 -5 1 -5 -13z"/>
<path d="M2930 2994 c0 -24 2 -25 47 -22 26 2 48 9 51 16 2 6 -1 12 -8 12 -6
0 -8 -4 -5 -10 10 -16 -7 -12 -43 10 -41 25 -42 25 -42 -6z"/>
<path d="M2855 3000 l-30 -8 27 -1 c15 0 30 4 33 9 3 6 5 9 3 9 -2 -1 -16 -5
-33 -9z"/>
<path d="M2897 2990 c-3 -12 0 -20 8 -20 8 0 11 8 8 20 -3 11 -7 20 -8 20 -1
0 -5 -9 -8 -20z"/>
<path d="M2808 2973 c7 -3 16 -2 19 1 4 3 -2 6 -13 5 -11 0 -14 -3 -6 -6z"/>
<path d="M3094 2959 c-4 -7 47 -49 60 -49 9 0 7 50 -1 51 -5 0 -18 2 -31 3
-13 2 -25 -1 -28 -5z"/>
<path d="M2230 2949 c0 -5 5 -7 10 -4 6 3 10 8 10 11 0 2 -4 4 -10 4 -5 0 -10
-5 -10 -11z"/>
<path d="M2791 2943 c0 -13 2 -14 6 -4 5 11 7 11 14 0 7 -11 9 -10 9 4 0 9 -7
17 -15 17 -8 0 -15 -8 -14 -17z"/>
<path d="M2850 2953 c0 -6 8 -18 18 -25 11 -7 21 -20 25 -28 5 -13 5 -13 6 0
0 20 -17 59 -18 41 -1 -11 -5 -10 -16 5 -8 10 -15 14 -15 7z"/>
<path d="M2901 2944 c0 -11 3 -14 6 -6 3 7 2 16 -1 19 -3 4 -6 -2 -5 -13z"/>
<path d="M2826 2925 c-3 -9 -9 -14 -14 -11 -4 2 -8 -4 -8 -15 0 -19 1 -19 17
2 11 15 18 18 24 10 4 -7 -1 -19 -11 -27 -18 -14 -18 -15 2 -5 12 6 25 7 29 3
8 -7 -7 22 -23 46 -7 11 -10 10 -16 -3z"/>
<path d="M2880 2855 c0 -5 5 -17 10 -25 5 -8 10 -10 10 -5 0 6 -5 17 -10 25
-5 8 -10 11 -10 5z"/>
<path d="M1932 2713 c1 -78 1 -78 8 -23 4 30 8 44 9 30 1 -14 5 -19 8 -12 2 6
9 10 14 6 5 -3 9 6 9 20 0 19 7 27 25 32 42 10 28 24 -25 24 l-50 0 2 -77z"/>
<path d="M2930 2766 c0 -15 3 -17 9 -8 7 11 9 11 14 -2 4 -9 14 -16 24 -16 15
0 16 -2 3 -10 -8 -5 -12 -10 -10 -12 67 -49 145 -90 154 -81 3 4 6 1 6 -5 0
-7 7 -12 15 -12 12 0 15 16 15 85 l0 85 -60 0 -60 0 0 -40 c0 -22 -4 -40 -9
-40 -5 0 -8 8 -7 18 2 9 -4 20 -13 24 -14 6 -14 7 2 7 9 1 17 8 17 16 0 13
-11 16 -50 14 -43 -2 -50 -5 -50 -23z m57 -12 c-3 -3 -12 -4 -19 -1 -8 3 -5 6
6 6 11 1 17 -2 13 -5z"/>
<path d="M2970 2455 c6 -7 6 -16 2 -21 -4 -5 3 0 16 10 12 11 22 20 22 21 0 0
-11 1 -25 1 -17 0 -21 -3 -15 -11z"/>
<path d="M2869 2359 l-24 -21 25 6 c14 3 28 6 33 6 10 0 9 30 -2 30 -5 0 -19
-9 -32 -21z"/>
<path d="M2230 2260 c0 -81 2 -83 84 -45 30 14 60 25 65 25 6 0 11 20 11 45
l0 45 -80 0 -80 0 0 -70z"/>
<path d="M2410 2295 c0 -19 2 -35 5 -35 3 0 24 12 46 26 22 14 50 29 62 34 16
6 4 9 -45 9 l-68 1 0 -35z m17 3 c-3 -8 -6 -5 -6 6 -1 11 2 17 5 13 3 -3 4
-12 1 -19z"/>
<path d="M2385 1970 c-3 -5 -1 -10 4 -10 6 0 11 5 11 10 0 6 -2 10 -4 10 -3 0
-8 -4 -11 -10z"/>
<path d="M2662 3485 c0 -16 2 -22 5 -12 2 9 2 23 0 30 -3 6 -5 -1 -5 -18z"/>
<path d="M4817 3490 c-74 -13 -125 -92 -112 -171 15 -87 141 -178 228 -165 94
14 141 111 98 198 -51 102 -129 152 -214 138z m53 -40 c22 -11 40 -25 40 -30
0 -13 -4 -12 -33 1 -26 12 -67 -2 -67 -22 0 -6 3 -8 8 -6 4 3 7 -8 7 -23 0
-22 -3 -26 -12 -18 -10 8 -13 6 -13 -5 0 -9 5 -19 10 -22 18 -11 11 -25 -12
-25 -31 0 -68 38 -68 70 0 42 50 96 93 99 4 1 26 -8 47 -19z m31 -99 c-8 -14
-21 -21 -39 -20 -21 1 -22 2 -7 6 31 8 44 23 38 41 -5 13 -3 14 6 6 10 -9 10
-17 2 -33z"/>
<path d="M251 3434 c0 -11 3 -14 6 -6 3 7 2 16 -1 19 -3 4 -6 -2 -5 -13z"/>
<path d="M122 3384 c20 -23 38 -47 40 -55 3 -8 9 -11 13 -7 4 4 -14 29 -40 55
-42 41 -43 42 -13 7z"/>
<path d="M1128 3333 c12 -48 13 -74 3 -157 -11 -102 -57 -252 -89 -296 -27
-37 -81 -70 -111 -69 -25 1 -25 1 4 8 53 13 71 29 102 88 82 155 105 406 41
447 -23 14 -28 6 -30 -40 0 -21 -4 -43 -8 -49 -4 -5 -11 -30 -15 -55 -4 -25
-16 -65 -26 -89 -10 -24 -19 -52 -19 -62 0 -11 -4 -19 -10 -19 -5 0 -10 -7
-10 -16 0 -27 -41 -85 -73 -105 -29 -17 -31 -17 -44 -1 -12 15 -13 11 -11 -30
3 -60 -7 -71 -16 -18 -3 22 -9 40 -12 40 -14 0 -53 -39 -43 -42 7 -2 -13 -4
-43 -4 -31 1 -54 5 -51 10 3 5 0 7 -7 4 -24 -8 -22 -26 4 -43 27 -18 62 -21
116 -11 l35 6 -40 -16 c-26 -10 -54 -13 -79 -9 l-40 6 20 -22 c10 -12 52 -37
92 -56 69 -32 78 -34 175 -32 81 1 104 5 114 18 10 14 14 9 32 -31 40 -94 164
-120 210 -43 l19 33 -30 6 c-24 5 -29 10 -25 26 5 21 -43 82 -73 92 -12 4 -6
15 23 51 20 25 37 49 37 54 0 12 60 42 95 46 29 4 -82 11 -180 12 -38 0 -50 4
-50 15 0 12 15 15 85 13 47 -1 78 0 69 3 -27 8 5 96 43 119 16 9 28 19 26 21
-3 2 -46 4 -97 5 -78 2 -91 4 -89 18 3 13 16 16 68 14 36 -1 57 1 48 3 -12 4
-18 15 -18 32 0 32 8 44 35 61 17 10 7 11 -53 8 -59 -4 -75 -1 -79 11 -4 8 1
20 10 27 15 10 13 15 -17 44 l-33 32 15 -58z m35 -565 c6 -19 -11 -48 -28 -48
-8 0 -15 6 -15 13 0 8 -3 8 -9 -2 -5 -8 -7 -21 -4 -30 4 -13 3 -13 -5 -2 -7
10 -5 24 6 48 16 33 46 45 55 21z"/>
<path d="M4638 3020 c3 -120 0 -154 -12 -179 -32 -61 -33 -61 -490 -61 -268 0
-425 4 -443 11 -37 14 -19 -3 32 -30 39 -21 50 -21 471 -20 l432 1 42 -27 c41
-26 42 -27 23 -48 -18 -22 -18 -22 3 -4 11 9 24 17 27 17 12 0 7 -34 -7 -53
-14 -18 -15 -18 -25 0 -6 10 -11 13 -11 7 0 -6 7 -17 16 -25 17 -14 20 -12 50
44 9 17 26 30 44 34 16 3 28 9 25 12 -2 4 9 5 26 3 16 -2 29 -8 29 -12 0 -5
12 -7 26 -5 15 1 28 -3 31 -11 3 -8 14 -14 26 -14 11 0 17 -3 14 -7 -4 -3 0
-11 8 -17 11 -8 12 -15 4 -26 -9 -12 -10 -12 -5 4 5 15 4 17 -7 8 -8 -7 -17
-9 -21 -5 -4 4 -4 0 -1 -9 5 -13 2 -15 -14 -11 -15 4 -23 -1 -30 -20 -5 -14
-15 -28 -22 -33 -8 -4 -10 -3 -5 4 4 7 3 12 -2 12 -17 0 -21 -28 -5 -34 9 -4
13 -9 10 -13 -4 -3 -14 0 -22 7 -13 11 -18 11 -28 0 -10 -10 -9 -11 2 -5 9 5
12 4 7 -3 -3 -6 2 -15 11 -21 10 -6 14 -11 9 -11 -5 0 -18 7 -28 16 -14 14
-20 14 -33 4 -8 -7 -12 -17 -8 -23 3 -6 1 -7 -6 -3 -9 6 -9 11 1 24 11 13 11
15 -4 9 -31 -11 -40 17 -16 49 12 16 18 26 13 22 -4 -4 -14 0 -22 10 -8 9 -12
11 -8 4 8 -16 -2 -49 -18 -55 -8 -3 -14 5 -15 21 -2 24 -16 41 -34 42 -12 0
-9 -28 4 -36 7 -4 8 -3 4 4 -4 7 -2 12 3 12 16 0 13 -27 -3 -33 -8 -3 -17 -1
-19 6 -3 9 -8 9 -18 -1 -12 -11 -12 -14 0 -21 11 -7 11 -10 0 -16 -9 -6 -8
-10 7 -15 14 -6 20 -2 25 14 4 17 10 11 31 -34 26 -57 63 -165 72 -210 3 -14
3 0 1 30 -2 30 -15 89 -28 130 -19 58 -21 70 -8 54 9 -11 27 -55 41 -97 33
-103 56 -105 28 -3 -10 37 -9 46 4 60 22 22 26 20 20 -9 -5 -28 24 -115 39
-115 5 0 16 11 25 25 9 14 20 22 25 19 5 -3 -7 -34 -27 -69 -39 -70 -40 -94
-12 -238 8 -45 8 -61 -1 -66 -6 -4 -46 -6 -89 -4 l-77 4 35 -24 c82 -57 200
-68 245 -22 23 22 25 31 25 122 0 54 4 103 8 109 4 6 24 14 45 18 l37 7 0 93
c0 74 -3 95 -15 100 -8 3 -15 1 -15 -5 0 -6 -4 -7 -10 -4 -5 3 -10 1 -10 -4 0
-6 -5 -11 -11 -11 -8 0 -8 4 0 14 6 7 9 22 5 32 -5 16 -4 17 6 4 9 -11 13 -12
17 -2 2 6 11 12 18 12 10 0 13 24 14 98 l0 97 -18 -50 c-9 -27 -22 -50 -27
-50 -5 0 -15 -4 -21 -8 -8 -5 -13 -3 -13 4 0 7 -3 10 -6 6 -10 -10 7 -28 19
-20 19 12 46 11 51 -2 2 -6 -1 -12 -7 -13 -30 -2 -62 -13 -65 -22 -8 -23 -18
-8 -16 23 2 17 1 24 -2 14 -3 -11 -12 -16 -20 -13 -7 3 -16 0 -20 -6 -4 -7 -3
-8 4 -4 7 4 12 2 12 -3 0 -6 -4 -11 -9 -11 -11 0 -32 25 -26 32 3 2 -2 5 -10
5 -11 0 -12 -4 -5 -11 5 -5 10 -18 10 -29 0 -10 4 -15 10 -12 6 4 7 -1 3 -11
-4 -12 -3 -15 5 -10 7 4 12 3 12 -2 0 -6 -7 -13 -16 -16 -8 -3 -12 -2 -9 4 3
6 0 10 -8 10 -10 0 -13 -7 -10 -20 3 -11 1 -20 -5 -20 -18 0 -20 24 -3 44 15
18 15 18 -5 12 -15 -5 -21 -2 -21 11 0 10 5 21 11 25 8 5 7 8 -1 8 -19 0 -16
50 4 72 12 13 13 18 3 18 -7 0 -10 3 -7 6 4 4 13 1 21 -5 8 -7 17 -8 20 -3 4
6 21 7 43 2 26 -6 40 -5 45 3 6 9 8 9 8 0 0 -6 -8 -20 -17 -29 -17 -17 -17
-18 0 -11 10 4 23 7 28 7 5 0 20 24 34 53 23 46 26 63 23 144 -1 50 -6 90 -10
87 -13 -8 -9 10 5 26 10 12 9 12 -5 1 -10 -7 -18 -9 -18 -4 0 5 -9 9 -20 9
-11 0 -20 -4 -20 -9 0 -5 -9 -6 -19 -2 -21 6 -38 -10 -21 -20 5 -3 10 -2 10 4
0 6 7 8 17 4 14 -5 12 -8 -7 -15 -33 -12 -47 5 -30 36 7 14 16 23 20 21 5 -3
10 2 14 10 3 8 13 15 23 15 10 0 25 5 33 11 13 9 12 10 -3 5 -11 -4 -20 1 -24
12 -6 16 -68 82 -77 82 -2 0 -9 -13 -15 -30 -5 -16 -17 -30 -25 -30 -9 0 -16
-5 -16 -10 0 -7 6 -8 16 -2 18 10 54 -13 54 -33 0 -5 -4 -4 -8 3 -9 14 -42 6
-42 -10 0 -5 5 -6 11 -2 8 5 8 1 0 -14 -6 -12 -16 -24 -21 -27 -6 -4 -7 -12
-3 -18 3 -7 -3 -4 -14 6 -19 16 -21 16 -39 -5 -10 -13 -12 -18 -5 -11 7 6 19
9 26 6 10 -3 8 -11 -8 -29 -16 -18 -23 -21 -30 -12 -6 9 -7 8 -4 -4 9 -26 -17
-42 -34 -21 -12 15 -12 16 4 10 11 -4 16 -3 12 3 -4 6 -12 10 -18 9 -7 -1 -21
-1 -31 0 -18 1 -18 2 -2 20 10 11 15 25 10 32 -4 7 -3 10 3 6 13 -8 36 40 27
56 -4 7 5 1 21 -13 16 -14 25 -19 21 -12 -5 8 0 12 13 12 18 0 19 3 11 26 -9
22 -8 25 5 20 9 -3 15 0 15 9 0 8 -4 15 -9 15 -15 0 -26 -23 -23 -45 2 -17 1
-17 -7 -5 -9 13 -11 12 -11 -5 0 -18 -1 -18 -16 3 -17 24 -28 22 -45 -10 -8
-14 -8 -18 0 -14 7 5 9 1 5 -8 -3 -9 -10 -13 -15 -10 -5 3 -9 0 -9 -7 0 -10
-3 -10 -11 -2 -8 8 -8 17 1 34 11 23 10 23 -4 5 -19 -24 -20 -38 -4 -54 7 -7
9 -12 6 -12 -4 0 -14 7 -22 16 -15 14 -17 13 -23 -16 -3 -19 -14 -35 -27 -40
-16 -7 -17 -9 -4 -9 9 -1 24 9 33 22 17 22 17 22 13 -15 -2 -21 1 -39 7 -41 9
-4 -62 -1 -75 2 -3 1 2 6 10 11 8 5 10 10 4 10 -20 0 -24 -13 -9 -30 15 -16
14 -17 -10 -17 -14 0 -25 5 -25 12 0 8 -3 20 -6 28 -3 8 2 22 11 31 9 9 13 16
9 16 -3 0 -1 6 6 14 6 8 17 13 24 10 18 -7 42 24 29 37 -8 8 -13 7 -18 -2 -5
-8 -4 -10 3 -5 7 4 12 3 12 -3 0 -16 -21 -24 -32 -13 -8 8 -7 16 2 27 9 11 9
15 1 15 -7 0 -9 5 -5 11 10 16 7 170 -4 199 -5 14 -18 33 -28 42 -18 16 -19
12 -16 -132z m356 -35 c-4 -8 -8 -15 -10 -15 -2 0 -4 7 -4 15 0 8 4 15 10 15
5 0 7 -7 4 -15z m26 -23 c0 -4 -10 -9 -22 -9 -18 -2 -20 0 -8 7 18 12 30 13
30 2z m78 -137 c10 -21 9 -25 -3 -25 -8 0 -15 -5 -15 -11 0 -6 6 -9 13 -6 8 3
13 -3 13 -14 0 -11 -4 -19 -8 -19 -4 0 -8 5 -8 11 0 8 -5 8 -15 -1 -8 -7 -12
-17 -9 -22 4 -6 -5 -2 -20 7 -26 17 -37 32 -13 19 6 -4 4 2 -5 12 -17 17 -17
19 10 45 35 34 46 35 60 4z m-118 2 c0 -1 4 -16 9 -34 7 -26 7 -31 -5 -26 -8
3 -18 -4 -24 -18 -10 -23 -10 -23 -6 -2 2 13 0 25 -5 28 -14 9 2 37 19 30 12
-4 13 -3 2 10 -8 10 -9 15 -1 15 6 0 11 -1 11 -3z m-69 -21 c-7 -8 -8 -15 -2
-18 5 -1 3 -11 -5 -22 -14 -20 -14 -20 -14 0 0 15 -2 16 -9 4 -6 -8 -8 -17 -6
-20 2 -4 -2 -7 -10 -7 -20 0 -20 1 16 42 29 33 55 51 30 21z m-98 -22 c7 -7
-2 -34 -12 -34 -4 0 -7 9 -8 20 -2 19 8 26 20 14z m177 -54 c0 -5 -2 -10 -4
-10 -3 0 -8 5 -11 10 -3 6 -1 10 4 10 6 0 11 -4 11 -10z m75 -90 c-4 -23 -9
-39 -12 -36 -3 2 -2 23 2 46 4 23 9 39 12 36 3 -2 2 -23 -2 -46z m38 -164 c4
-10 0 -14 -14 -13 -22 1 -25 13 -6 20 6 3 13 6 13 6 1 1 4 -5 7 -13z m-74 -35
c9 -6 10 -11 2 -15 -13 -8 -31 1 -31 15 0 11 11 11 29 0z m2 -45 c5 3 9 0 9
-6 0 -15 -23 -7 -26 8 -1 7 0 8 3 2 2 -5 9 -8 14 -4z m-57 -4 c3 -5 -1 -9 -9
-9 -8 0 -12 4 -9 9 3 4 7 8 9 8 2 0 6 -4 9 -8z m-30 -134 c-4 -7 -7 -70 -6
-141 2 -97 0 -128 -10 -125 -14 5 -37 107 -37 168 l1 45 13 -55 c7 -30 11 -58
9 -62 -3 -5 -2 -8 3 -8 4 0 8 35 8 78 1 74 7 112 20 112 4 0 3 -5 -1 -12z"/>
<path d="M5053 2768 c-2 -18 0 -20 7 -8 12 18 13 30 2 30 -4 0 -9 -10 -9 -22z"/>
<path d="M3920 3150 c-29 -7 -36 -28 -18 -53 22 -30 51 -11 44 27 -5 29 -5 30
9 12 12 -16 15 -17 15 -4 0 20 -18 26 -50 18z"/>
<path d="M4004 3151 c-2 -2 -4 -20 -4 -40 0 -20 4 -31 8 -26 10 14 46 19 37 6
-3 -6 1 -11 9 -11 12 0 16 10 16 40 0 38 -1 39 -31 37 -17 -1 -32 -4 -35 -6z
m33 -17 c-3 -3 -12 -4 -19 -1 -8 3 -5 6 6 6 11 1 17 -2 13 -5z"/>
<path d="M4106 3152 c-3 -6 -3 -23 0 -39 5 -25 10 -29 37 -28 30 1 32 3 32 35
0 32 -3 35 -32 38 -17 2 -34 -1 -37 -6z m54 -21 c0 -5 -9 -7 -20 -4 -11 3 -20
7 -20 9 0 2 9 4 20 4 11 0 20 -4 20 -9z"/>
<path d="M4322 3151 c-18 -11 -12 -41 10 -54 12 -8 21 -7 32 2 38 32 0 79 -42
52z m31 -18 c-7 -2 -19 -2 -25 0 -7 3 -2 5 12 5 14 0 19 -2 13 -5z"/>
<path d="M4470 3150 c-8 -5 -23 -7 -33 -4 -16 5 -18 1 -15 -28 l3 -33 55 0
c48 0 55 3 58 21 3 23 -21 54 -41 54 -7 0 -19 -5 -27 -10z m37 -12 c11 -19 13
-39 2 -32 -5 3 -9 11 -9 19 0 7 -6 16 -12 18 -10 4 -10 6 -1 6 6 1 15 -5 20
-11z m-27 -41 c16 -3 13 -5 -10 -4 -26 2 -36 7 -38 22 -4 18 -3 19 10 3 7 -9
24 -19 38 -21z"/>
<path d="M61 3134 c0 -11 3 -14 6 -6 3 7 2 16 -1 19 -3 4 -6 -2 -5 -13z"/>
<path d="M4210 3115 c0 -33 2 -35 35 -35 33 0 35 2 35 35 0 33 -2 35 -35 35
-33 0 -35 -2 -35 -35z m55 -5 c0 -8 -10 -16 -22 -18 -13 -2 -23 1 -23 6 0 6 9
8 20 5 25 -7 27 13 3 21 -14 4 -14 4 2 3 11 -1 20 -9 20 -17z"/>
<path d="M3787 3111 c-4 -17 -3 -21 5 -13 5 5 8 16 6 23 -3 8 -7 3 -11 -10z"/>
<path d="M63 3075 c0 -22 2 -30 4 -17 2 12 2 30 0 40 -3 9 -5 -1 -4 -23z"/>
<path d="M4370 3089 c0 -5 5 -7 10 -4 6 3 10 8 10 11 0 2 -4 4 -10 4 -5 0 -10
-5 -10 -11z"/>
<path d="M3732 3037 c-16 -18 -4 -55 20 -63 29 -9 52 18 44 50 -7 29 -45 36
-64 13z m41 -22 c-3 -9 -8 -14 -10 -11 -3 3 -2 9 2 15 9 16 15 13 8 -4z"/>
<path d="M3894 3028 c3 -13 6 -27 6 -32 0 -4 11 -6 25 -4 14 3 25 1 25 -4 0
-5 5 -6 10 -3 16 10 12 52 -6 59 -9 3 -27 6 -41 6 -21 0 -24 -3 -19 -22z"/>
<path d="M4000 3015 c0 -33 2 -35 35 -35 34 0 35 1 35 38 0 27 -3 33 -10 22
-6 -10 -10 -11 -10 -2 0 6 -11 12 -25 12 -22 0 -25 -4 -25 -35z m60 -10 c0 -9
-9 -15 -22 -14 -17 1 -19 2 -5 6 9 2 17 9 17 14 0 5 2 9 5 9 3 0 5 -7 5 -15z"/>
<path d="M4102 3031 c-9 -23 13 -45 44 -46 24 0 30 4 32 28 2 15 -2 27 -8 27
-7 0 -9 -8 -5 -19 3 -11 0 -23 -6 -27 -9 -5 -10 -2 -6 9 3 9 2 19 -4 22 -5 4
-7 10 -5 14 3 3 -5 7 -16 7 -11 0 -23 -7 -26 -15z"/>
<path d="M4204 3035 c-8 -20 4 -35 27 -35 12 0 19 7 19 20 0 11 4 20 9 20 4 0
8 -10 7 -22 -1 -17 -9 -25 -31 -29 -29 -6 -29 -7 8 -8 36 -1 37 0 37 34 0 33
-2 35 -35 35 -22 0 -38 -6 -41 -15z m31 -5 c3 -5 1 -10 -4 -10 -6 0 -11 5 -11
10 0 6 2 10 4 10 3 0 8 -4 11 -10z"/>
<path d="M4310 3015 c0 -33 2 -35 34 -35 28 0 35 4 40 25 9 36 1 45 -40 45
-32 0 -34 -2 -34 -35z m60 1 c0 -7 -9 -16 -21 -19 -20 -5 -20 -5 -3 14 20 23
24 23 24 5z"/>
<path d="M4424 3036 c-14 -37 0 -51 50 -51 54 0 75 18 61 51 -7 16 -9 15 -15
-11 l-6 -30 -7 28 c-6 23 -13 27 -43 27 -21 0 -37 -6 -40 -14z m47 -39 c-5 -5
-17 -5 -28 2 -16 9 -15 10 9 9 16 -2 24 -6 19 -11z"/>
<path d="M63 2975 c0 -27 2 -38 4 -22 2 15 2 37 0 50 -2 12 -4 0 -4 -28z"/>
<path d="M4889 2983 c-13 -16 -12 -17 3 -5 10 8 23 10 30 6 20 -13 38 -13 38
-2 0 6 -7 8 -15 5 -8 -4 -17 -2 -20 3 -9 15 -21 12 -36 -7z"/>
<path d="M4856 2951 c-4 -7 -5 -15 -2 -18 9 -9 19 4 14 18 -4 11 -6 11 -12 0z"/>
<path d="M3895 2931 c-9 -28 5 -51 31 -51 13 0 24 5 24 11 0 5 4 8 9 4 5 -3 9
8 9 25 -1 27 -4 30 -34 30 -23 0 -34 -5 -39 -19z m52 3 c-3 -3 -12 -4 -19 -1
-8 3 -5 6 6 6 11 1 17 -2 13 -5z"/>
<path d="M4000 2917 c0 -31 2 -34 33 -34 37 0 46 9 39 43 -4 20 -10 24 -38 24
-32 0 -34 -2 -34 -33z m65 -17 c-3 -5 -12 -10 -18 -10 -7 0 -6 4 3 10 19 12
23 12 15 0z"/>
<path d="M4109 2948 c-7 -26 -5 -59 3 -64 7 -5 8 -2 3 6 -6 10 -4 12 9 7 24
-9 54 12 48 35 -3 12 -14 18 -33 18 -16 0 -29 -1 -30 -2z m44 -15 c-7 -2 -19
-2 -25 0 -7 3 -2 5 12 5 14 0 19 -2 13 -5z"/>
<path d="M4210 2915 c0 -33 2 -35 35 -35 33 0 35 2 35 35 0 33 -2 35 -35 35
-33 0 -35 -2 -35 -35z m58 -6 l2 -24 -13 24 c-9 15 -17 20 -21 12 -4 -6 -4
-15 -1 -21 3 -5 1 -10 -4 -10 -15 0 -14 37 2 43 21 9 32 1 35 -24z"/>
<path d="M4310 2918 c0 -30 3 -33 30 -33 37 0 54 17 45 44 -5 16 -15 21 -41
21 -32 0 -34 -2 -34 -32z m51 -20 c-11 -11 -13 -10 -7 0 4 7 2 21 -5 30 -12
15 -11 15 6 0 16 -15 17 -20 6 -30z"/>
<path d="M4428 2943 c0 -5 -2 -20 -2 -35 -2 -27 0 -28 50 -28 55 0 71 14 59
51 -5 15 -16 19 -56 19 -27 0 -50 -3 -51 -7z m92 -11 c0 -5 -7 -9 -15 -9 -8 0
-15 4 -15 9 0 4 7 8 15 8 8 0 15 -4 15 -8z m-69 -19 c13 -16 12 -17 -3 -4 -17
13 -22 21 -14 21 2 0 10 -8 17 -17z"/>
<path d="M3605 2930 c3 -5 8 -10 11 -10 2 0 4 5 4 10 0 6 -5 10 -11 10 -5 0
-7 -4 -4 -10z"/>
<path d="M4920 2910 c6 -11 8 -26 4 -33 -6 -8 -3 -8 8 1 15 12 15 15 0 33 -21
25 -26 24 -12 -1z"/>
<path d="M3630 2821 c0 -5 7 -12 16 -15 14 -5 15 -4 4 9 -14 17 -20 19 -20 6z"/>
<path d="M4827 2819 c7 -7 15 -10 18 -7 3 3 -2 9 -12 12 -14 6 -15 5 -6 -5z"/>
<path d="M1625 2780 c3 -5 8 -10 11 -10 2 0 4 5 4 10 0 6 -5 10 -11 10 -5 0
-7 -4 -4 -10z"/>
<path d="M527 2726 c6 -43 -23 -58 -48 -25 -14 19 -17 20 -22 4 -12 -31 -7
-62 14 -89 45 -57 131 -75 169 -34 25 27 25 43 -1 93 -26 51 -64 85 -93 85
-21 0 -23 -4 -19 -34z"/>
<path d="M4280 2696 c6 -18 3 -25 -13 -36 -12 -8 -28 -13 -35 -12 -10 3 -11
-1 -2 -17 24 -46 93 -56 111 -17 10 20 8 31 -10 59 -25 41 -65 59 -51 23z"/>
<path d="M4544 2575 c-9 -18 -9 -25 0 -29 6 -3 0 -8 -14 -12 -24 -8 -24 -8 10
-15 19 -4 43 -3 54 3 16 9 18 8 13 -7 -4 -9 -7 -22 -7 -28 0 -8 -4 -7 -9 2 -8
12 -11 12 -24 0 -13 -12 -9 -18 32 -42 25 -16 58 -36 73 -45 35 -21 41 -37 22
-56 -10 -10 -26 -14 -47 -10 -26 4 -29 3 -14 -6 30 -19 19 -31 -14 -15 -34 18
-48 15 -24 -5 20 -16 19 -30 -2 -30 -15 0 -14 -2 3 -15 10 -8 15 -15 9 -14
-26 4 -42 -4 -59 -28 -12 -16 -14 -23 -5 -18 11 6 12 5 2 -5 -10 -11 -17 -10
-35 6 -23 19 -23 19 -7 -1 9 -11 15 -25 13 -30 -2 -6 16 -22 41 -38 52 -31
110 -35 155 -12 22 11 30 12 33 2 3 -6 6 5 6 26 1 22 -10 59 -25 88 -14 28
-23 56 -21 62 2 7 14 -8 26 -31 12 -24 25 -42 27 -39 8 8 -25 140 -48 190 -17
37 -29 50 -50 54 -34 7 -55 28 -35 36 9 3 12 16 9 37 -3 21 -7 28 -12 19 -5
-7 -6 -17 -4 -23 3 -7 -5 -12 -16 -13 -24 -2 -26 6 -4 21 10 8 13 18 8 31 -7
16 -10 13 -25 -21 l-17 -39 1 33 c0 42 -5 47 -19 17z m46 -341 c0 -3 -7 -12
-15 -20 -16 -17 -18 -14 -9 10 6 15 24 23 24 10z"/>
<path d="M1021 2553 c7 -12 15 -20 18 -17 3 2 -3 12 -13 22 -17 16 -18 16 -5
-5z"/>
<path d="M4830 2550 c-13 -8 -12 -10 3 -10 9 0 17 5 17 10 0 12 -1 12 -20 0z"/>
<path d="M4776 2535 c-11 -8 -15 -15 -9 -15 6 0 16 7 23 15 16 19 11 19 -14 0z"/>
<path d="M1052 2490 c5 -17 9 -65 7 -108 -3 -63 -10 -90 -37 -145 -22 -45 -42
-71 -58 -77 -13 -5 -24 -12 -24 -15 0 -4 6 -3 13 0 6 4 3 -1 -8 -9 -42 -35
-151 -48 -210 -26 -43 17 -41 4 7 -30 60 -44 102 -60 157 -60 95 0 185 68 218
163 15 44 17 235 2 253 -5 6 -11 26 -13 43 -3 25 0 31 11 27 8 -3 11 -1 8 4
-3 6 -24 10 -45 10 l-39 0 11 -30z"/>
<path d="M834 2481 c-51 -31 -79 -86 -79 -157 0 -74 20 -104 70 -104 87 0 151
129 111 225 -13 30 -41 55 -63 55 -4 0 -22 -9 -39 -19z m32 -35 c6 -25 -19
-95 -39 -108 -27 -17 -37 -8 -37 36 0 33 6 49 26 70 33 32 42 33 50 2z"/>
<path d="M3718 2483 c6 -2 18 -2 25 0 6 3 1 5 -13 5 -14 0 -19 -2 -12 -5z"/>
<path d="M4925 2470 c-3 -5 -1 -10 4 -10 6 0 11 5 11 10 0 6 -2 10 -4 10 -3 0
-8 -4 -11 -10z"/>
<path d="M3807 2433 c-14 -4 -16 -8 -6 -19 18 -22 3 -44 -31 -44 -33 0 -36 -6
-18 -45 13 -28 74 -65 108 -65 26 0 63 37 56 56 -3 9 1 14 12 15 10 1 7 4 -8
8 -14 4 -25 14 -25 23 0 16 -53 79 -64 77 -3 -1 -14 -3 -24 -6z"/>
<path d="M1234 2260 c0 -58 1 -81 3 -52 2 28 2 76 0 105 -2 28 -3 5 -3 -53z"/>
<path d="M135 2321 c8 -25 -24 -61 -58 -63 -25 -2 -26 -4 -11 -15 29 -21 72
-16 89 11 15 22 15 27 0 55 -17 34 -30 42 -20 12z"/>
<path d="M4227 2300 c3 -11 0 -20 -6 -20 -6 0 -11 5 -11 10 0 6 -5 10 -11 10
-6 0 -8 -7 -5 -16 7 -18 -11 -47 -24 -39 -14 8 -30 -21 -39 -70 l-9 -47 47 6
46 6 -30 -16 c-22 -11 -45 -14 -92 -8 -44 4 -63 3 -63 -5 0 -6 -13 -11 -28
-11 -35 0 -62 -27 -72 -72 l-8 -33 -1 33 c-1 41 45 92 82 92 14 0 30 6 36 14
13 16 54 29 45 15 -3 -5 2 -9 10 -9 12 0 16 10 16 39 l0 38 -46 1 c-26 1 -56
-5 -68 -13 -11 -8 -34 -15 -51 -16 l-30 -1 35 -13 35 -13 -33 -8 c-19 -4 -36
-13 -39 -20 -3 -8 -9 -14 -14 -14 -4 0 -6 7 -3 15 8 20 -3 19 -24 -2 -14 -13
-17 -36 -16 -122 0 -98 3 -115 43 -226 23 -66 46 -124 52 -129 5 -6 10 -28 10
-50 2 -30 3 -34 6 -13 2 15 9 27 14 27 6 0 8 -8 5 -18 -12 -36 -9 -147 4 -172
25 -46 123 -113 168 -112 36 0 68 -27 67 -57 0 -29 -31 -53 -44 -33 -13 22
-24 -35 -11 -58 16 -30 90 -73 125 -72 36 1 65 33 65 71 0 27 -28 81 -62 118
l-20 21 37 11 c44 12 95 65 95 98 0 75 53 249 105 344 17 31 28 103 28 184 0
45 -6 70 -23 100 -33 56 -114 135 -139 135 -11 0 -39 10 -63 22 -46 24 -125
27 -141 6 -6 -10 -7 -9 -4 2 2 8 12 16 23 18 58 9 64 12 64 40 0 26 -15 52
-31 52 -4 0 -5 -9 -2 -20z m28 -89 c-6 -4 -23 -11 -40 -14 l-30 -6 30 14 c35
16 54 19 40 6z m-155 -9 c0 -8 -43 -32 -58 -32 -6 0 49 40 56 40 1 0 2 -4 2
-8z m260 -41 c0 -5 -6 -11 -14 -14 -19 -8 -57 3 -50 14 7 12 64 12 64 0z
m-120 -63 c-15 -16 -19 -30 -14 -53 8 -42 -25 -86 -50 -66 -9 7 -16 21 -16 30
0 14 -2 14 -10 1 -15 -23 -12 5 4 43 8 20 27 40 47 50 48 24 64 22 39 -5z
m-210 -62 c0 -12 -7 -34 -15 -50 -8 -15 -15 -45 -15 -65 l-1 -36 -14 26 c-19
36 -37 117 -30 139 3 9 15 22 28 28 26 12 47 -7 47 -42z"/>
<path d="M1385 2300 c3 -5 8 -10 11 -10 2 0 4 5 4 10 0 6 -5 10 -11 10 -5 0
-7 -4 -4 -10z"/>
<path d="M4510 2240 c0 -5 5 -10 11 -10 5 0 7 5 4 10 -3 6 -8 10 -11 10 -2 0
-4 -4 -4 -10z"/>
<path d="M1639 2233 c-1 -4 -2 -19 -3 -33 -1 -21 -6 -25 -28 -23 -24 2 -28 -2
-28 -26 0 -69 100 -116 158 -75 12 8 20 19 17 24 -3 5 2 15 10 23 13 13 11 16
-16 26 -17 6 -28 15 -25 20 4 5 -4 21 -16 34 -24 26 -67 45 -69 30z"/>
<path d="M1230 2094 c0 -16 -5 -24 -12 -21 -7 2 -12 10 -10 16 1 6 -2 11 -8
11 -13 0 -13 -16 1 -41 7 -15 7 -24 -1 -34 -8 -10 -5 -13 15 -11 18 1 23 5 19
18 -2 9 0 19 6 23 13 8 13 65 0 65 -5 0 -10 -12 -10 -26z"/>
<path d="M1380 2063 c0 -29 -16 -38 -29 -16 -10 17 -10 17 -11 -2 0 -24 6 -32
45 -65 28 -24 29 -24 10 -2 -18 22 -18 24 -2 33 21 12 22 29 2 55 -14 19 -14
19 -15 -3z"/>
<path d="M660 1622 l0 -443 -25 -24 -24 -25 -268 0 -268 -1 45 -22 c48 -23 58
-24 351 -29 197 -3 221 3 232 62 4 18 11 29 17 25 8 -5 10 97 9 329 0 209 -5
336 -11 336 -5 0 -6 5 -3 10 4 6 11 7 17 4 6 -4 6 2 -1 15 -9 16 -9 26 0 42 6
12 7 19 1 15 -5 -3 -12 17 -15 46 -5 37 -14 60 -32 77 l-25 26 0 -443z"/>
<path d="M127 2033 c-11 -10 -8 -35 3 -28 6 3 7 -1 4 -9 -5 -12 1 -16 25 -16
28 0 31 3 31 30 0 26 -4 30 -28 30 -16 0 -32 -3 -35 -7z"/>
<path d="M232 2013 c3 -24 8 -28 33 -28 25 0 30 4 33 28 3 25 1 27 -33 27 -34
0 -36 -2 -33 -27z m23 -13 c3 -5 1 -10 -4 -10 -6 0 -11 5 -11 10 0 6 2 10 4
10 3 0 8 -4 11 -10z"/>
<path d="M338 2023 c-8 -30 2 -43 32 -43 29 0 44 19 34 45 -9 21 -61 19 -66
-2z"/>
<path d="M442 2013 c2 -23 8 -29 36 -31 30 -3 32 -1 32 27 0 21 -5 31 -15 31
-8 0 -14 -3 -12 -7 1 -5 -2 -9 -8 -9 -5 -1 -9 2 -7 7 1 5 -5 9 -14 9 -11 0
-14 -8 -12 -27z"/>
<path d="M3481 2011 c-9 -6 -10 -11 -2 -15 14 -9 14 -43 1 -51 -6 -4 -17 -1
-25 5 -12 10 -15 8 -16 -11 l-1 -24 -7 25 -7 25 -6 -30 c-7 -34 1 -47 56 -87
92 -67 185 -13 137 80 -35 69 -93 106 -130 83z"/>
<path d="M1360 1966 c0 -2 8 -10 18 -17 15 -13 16 -12 3 4 -13 16 -21 21 -21
13z"/>
<path d="M1666 1961 c-4 -5 -4 -16 -1 -23 3 -8 -1 -21 -9 -28 -17 -14 -51 -6
-41 10 3 5 1 10 -4 10 -16 0 -13 -56 3 -89 8 -15 34 -38 58 -50 41 -22 45 -22
79 -8 27 11 40 24 48 50 7 20 20 38 29 40 9 3 0 5 -20 6 -30 1 -38 5 -38 20 0
38 -87 90 -104 62z"/>
<path d="M1430 1903 c11 -27 26 -68 35 -93 9 -25 41 -74 71 -110 76 -88 104
-134 126 -203 60 -193 -37 -376 -231 -437 -150 -48 -321 -6 -435 107 -48 46
-48 46 -19 8 70 -90 166 -163 251 -191 33 -10 51 -21 48 -29 -3 -8 4 -11 22
-8 21 4 24 2 12 -6 -20 -14 -13 -14 66 4 36 9 68 14 71 12 2 -3 -19 -10 -46
-17 -46 -11 -78 -30 -51 -30 6 0 8 -5 4 -12 -5 -7 -3 -8 6 -3 7 4 28 8 47 7
19 -1 32 2 29 6 -2 4 11 7 30 8 40 1 45 -13 9 -22 -14 -3 -23 -10 -20 -14 3
-5 -13 -16 -35 -26 -22 -10 -40 -22 -40 -26 0 -4 8 -4 18 2 50 28 106 50 87
35 -36 -29 -188 -101 -270 -128 -174 -57 -300 -79 -482 -84 -131 -5 -173 -3
-173 6 0 7 -5 9 -10 6 -6 -4 -27 -1 -47 6 -21 6 -46 13 -58 14 -33 4 -35 5
-35 16 0 6 8 8 20 4 15 -5 21 0 26 22 4 15 16 41 26 56 16 23 18 33 9 57 -16
46 -70 108 -105 120 -17 5 -43 25 -58 44 -15 18 -35 36 -46 38 -15 4 -18 0
-17 -22 1 -22 -2 -26 -17 -22 -12 3 -18 -1 -18 -13 0 -14 -3 -15 -15 -5 -8 7
-15 19 -15 28 0 8 -3 13 -6 9 -3 -3 -18 5 -32 19 -19 17 -37 24 -62 23 l-35
-1 30 -7 c18 -4 31 -14 33 -25 3 -13 0 -17 -11 -13 -8 3 -24 -1 -36 -10 -18
-12 -21 -21 -15 -46 l6 -32 -22 20 c-13 11 -20 14 -15 6 5 -10 4 -12 -3 -7
-20 12 -14 64 9 87 12 12 15 19 8 17 -8 -3 -22 -19 -33 -37 -18 -30 -18 -34
-1 -76 9 -25 21 -45 26 -45 18 0 69 -58 69 -79 0 -18 -5 -21 -33 -19 -17 1
-35 7 -39 13 -4 5 -8 -3 -8 -19 0 -16 8 -38 17 -49 17 -18 17 -19 0 -29 -43
-23 -37 -94 9 -118 16 -9 21 -17 14 -24 -17 -17 -12 -84 9 -105 44 -44 67 -52
172 -56 95 -5 105 -3 126 17 13 12 23 33 23 49 0 19 7 32 23 40 12 6 32 20 43
31 21 19 22 19 80 -30 80 -66 140 -100 205 -114 63 -14 196 -17 289 -5 83 10
252 54 261 68 10 16 32 6 54 -26 25 -36 69 -54 93 -38 18 11 21 54 8 85 -6 13
0 22 25 37 18 11 36 18 41 15 4 -3 11 2 14 10 10 26 20 19 32 -22 12 -39 77
-92 115 -92 29 0 57 19 68 47 8 21 5 34 -16 69 -14 23 -39 52 -55 64 -36 25
-36 31 -9 87 30 61 20 135 -27 204 -19 28 -34 55 -34 61 0 5 -5 6 -12 2 -7 -4
-8 -3 -4 4 4 7 14 12 22 12 8 0 17 7 20 15 5 12 13 8 38 -19 31 -35 41 -39 84
-37 18 1 22 7 22 35 0 38 -41 96 -67 96 -12 0 -10 6 8 21 13 11 24 24 25 27 0
4 3 14 7 22 21 55 38 124 39 157 0 49 -26 125 -60 173 -15 21 -34 48 -42 60
-8 13 -24 33 -35 46 -42 49 -130 166 -131 175 -1 5 -2 18 -3 28 0 11 -8 26
-16 35 -8 8 -15 20 -15 26 0 13 -55 96 -69 105 -5 3 -1 -16 9 -42z m293 -859
c11 -11 -5 -34 -24 -34 -18 0 -26 20 -12 33 8 9 28 9 36 1z m-1609 -89 c-4 -8
-13 -15 -22 -15 -13 0 -12 3 4 15 24 18 25 18 18 0z m278 -19 c4 -6 8 -14 8
-18 0 -13 -18 -9 -23 5 -4 9 -8 8 -16 -3 -8 -12 -11 -12 -11 -1 0 11 -3 11
-15 1 -22 -19 0 -43 26 -29 15 7 19 6 19 -5 0 -23 -38 -30 -65 -12 -31 21 -31
31 0 62 26 26 60 26 77 0z m-147 -36 c0 -8 -11 -17 -25 -20 -14 -4 -24 -13
-24 -22 1 -10 -5 -14 -17 -11 -24 7 -25 48 -1 62 24 15 67 9 67 -9z m65 -110
c13 -8 11 -12 -10 -27 -14 -10 -29 -18 -34 -18 -17 0 -17 22 -1 39 19 18 24
19 45 6z m-82 -82 c17 -17 15 -63 -3 -78 -23 -19 -64 -4 -71 27 -11 42 45 80
74 51z m-148 -19 c0 -13 -21 -33 -38 -36 -13 -3 -17 29 -5 40 10 11 43 8 43
-4z m298 -14 c-2 -6 -13 -9 -24 -7 -12 1 -24 -4 -27 -12 -8 -20 11 -32 26 -17
17 17 26 13 20 -9 -6 -23 -39 -26 -66 -5 -24 18 -18 46 12 61 25 13 65 5 59
-11z m1257 -83 c-2 -29 -15 -42 -40 -40 -24 2 -24 10 3 41 19 22 39 22 37 -1z
m-1491 -17 c6 -18 -27 -55 -49 -55 -23 0 -18 37 7 54 28 20 34 20 42 1z m136
-29 c0 -23 -16 -36 -46 -36 -22 0 -17 27 8 44 31 22 38 20 38 -8z m1130 -70
c0 -15 -24 -28 -34 -19 -13 14 -5 33 14 33 11 0 20 -6 20 -14z"/>
<path d="M185 670 c-4 -7 -3 -16 3 -22 14 -14 45 -2 40 15 -6 16 -34 21 -43 7z"/>
<path d="M119 1936 c-2 -2 -3 -129 -1 -280 l3 -276 222 2 c170 2 222 6 221 16
-1 6 -2 131 -2 277 l-2 265 -218 0 c-120 0 -221 -2 -223 -4z m188 -76 c9 0 13
6 9 15 -3 8 -1 15 4 15 6 0 10 -12 10 -27 1 -23 2 -25 10 -11 7 10 17 14 32
10 17 -4 20 -2 15 12 -4 10 -3 15 3 11 6 -3 10 -16 10 -28 1 -19 2 -20 11 -5
10 18 37 14 51 -6 5 -7 8 -4 8 7 0 10 5 15 10 12 16 -10 12 -111 -5 -129 -8
-8 -15 -23 -16 -33 -1 -13 -3 -11 -9 7 -8 24 -8 24 -9 3 -1 -13 -7 -23 -15
-23 -9 0 -12 7 -9 20 3 11 0 20 -6 20 -6 0 -11 -9 -11 -20 0 -11 -4 -20 -9
-20 -5 0 -7 9 -4 20 3 11 0 20 -6 20 -6 0 -11 -9 -11 -20 0 -11 -4 -20 -10
-20 -5 0 -10 9 -10 20 0 11 -4 20 -10 20 -5 0 -10 -9 -10 -20 0 -11 -4 -20 -9
-20 -5 0 -7 9 -4 20 4 14 0 20 -10 20 -10 0 -13 -6 -10 -20 3 -11 0 -20 -6
-20 -6 0 -11 9 -11 20 0 16 -7 20 -30 20 -26 0 -30 -4 -30 -26 0 -14 -4 -23
-9 -20 -5 3 -7 15 -4 26 4 15 0 20 -13 21 -18 0 -18 1 1 9 17 7 17 9 3 9 -10
1 -18 5 -18 11 0 5 7 7 15 4 11 -5 14 1 12 25 -1 19 -7 31 -16 31 -11 0 -9 4
5 15 19 14 19 14 -1 15 -18 1 -19 1 -2 11 22 13 38 3 30 -18 -4 -11 -3 -14 5
-9 7 4 12 13 12 21 0 8 7 11 20 8 15 -4 20 0 21 13 1 17 2 17 6 2 2 -10 11
-18 20 -18z m60 24 c-3 -3 -12 -4 -19 -1 -8 3 -5 6 6 6 11 1 17 -2 13 -5z
m-177 -83 c0 -6 -4 -12 -8 -15 -5 -3 -9 1 -9 9 0 8 4 15 9 15 4 0 8 -4 8 -9z
m300 -96 c0 -8 -4 -15 -10 -15 -5 0 -7 7 -4 15 4 8 8 15 10 15 2 0 4 -7 4 -15z
m-220 -5 c0 -5 -9 -10 -20 -10 -11 0 -20 5 -20 10 0 6 9 10 20 10 11 0 20 -4
20 -10z m-52 -216 c3 -27 -1 -32 -22 -36 -31 -6 -36 -2 -36 32 0 33 8 42 35
38 14 -2 21 -12 23 -34z m100 14 c3 -13 -3 -18 -22 -18 -14 0 -26 -5 -26 -11
0 -7 10 -9 26 -5 17 5 23 3 19 -4 -3 -5 -19 -10 -36 -10 -25 0 -29 4 -29 29 0
16 6 32 13 35 23 9 52 1 55 -16z m97 11 c4 -5 4 -21 1 -35 -5 -19 -13 -24 -36
-24 -26 0 -30 4 -30 28 0 16 3 32 7 35 10 11 51 8 58 -4z m91 -21 c-8 -40 -18
-51 -39 -42 -10 4 -17 17 -17 33 0 34 7 41 38 41 22 0 24 -3 18 -32z"/>
<path d="M297 1823 c-2 -5 -4 -23 -5 -40 -2 -24 2 -33 13 -33 10 0 15 10 15
34 0 33 -14 56 -23 39z"/>
<path d="M330 1790 c0 -30 4 -40 16 -40 11 0 14 5 10 16 -3 9 -6 27 -6 40 0
13 -4 24 -10 24 -5 0 -10 -18 -10 -40z"/>
<path d="M370 1791 c0 -23 5 -41 10 -41 6 0 10 15 10 34 0 19 -4 38 -10 41 -6
4 -10 -10 -10 -34z"/>
<path d="M400 1791 c0 -23 4 -41 9 -41 12 0 12 68 0 76 -5 3 -9 -13 -9 -35z"/>
<path d="M437 1823 c-4 -3 -7 -15 -7 -26 0 -25 13 -14 17 13 3 21 1 24 -10 13z"/>
<path d="M463 1785 c0 -27 2 -38 4 -22 2 15 2 37 0 50 -2 12 -4 0 -4 -28z"/>
<path d="M220 1779 c0 -24 4 -38 10 -34 6 3 10 22 10 41 0 19 -4 34 -10 34 -5
0 -10 -18 -10 -41z"/>
<path d="M260 1779 c0 -24 4 -38 10 -34 6 3 10 22 10 41 0 19 -4 34 -10 34 -5
0 -10 -18 -10 -41z"/>
<path d="M170 1468 c0 -4 7 -8 15 -8 8 0 15 4 15 8 0 5 -7 9 -15 9 -8 0 -15
-4 -15 -9z"/>
<path d="M278 1493 c7 -3 16 -2 19 1 4 3 -2 6 -13 5 -11 0 -14 -3 -6 -6z"/>
<path d="M370 1490 c0 -5 7 -7 15 -4 8 4 15 8 15 10 0 2 -7 4 -15 4 -8 0 -15
-4 -15 -10z"/>
<path d="M4643 1832 c-46 -25 -83 -50 -83 -54 0 -5 19 3 43 17 23 15 61 35 85
46 41 19 43 19 72 2 30 -18 43 -46 54 -118 6 -37 5 -39 -9 -21 -8 11 -15 23
-15 28 0 12 -73 46 -89 40 -10 -3 -11 2 -6 19 4 14 3 19 -2 12 -5 -7 -33 -17
-63 -24 -30 -6 -61 -16 -69 -23 -12 -9 -13 -8 -7 3 6 9 4 12 -5 9 -35 -11
-106 -203 -124 -335 -6 -49 -5 -53 13 -53 13 0 22 9 26 26 4 14 17 42 30 62
14 20 27 51 31 69 3 17 12 34 20 37 9 3 12 17 9 47 -5 38 -4 41 10 30 9 -8 16
-18 16 -23 0 -5 10 -18 23 -28 l22 -19 -42 -43 c-29 -29 -43 -53 -43 -71 0
-38 52 -93 108 -112 26 -9 54 -20 63 -25 12 -6 14 -3 11 21 -3 23 1 31 22 40
15 7 22 15 16 19 -15 9 -1 40 17 40 12 0 14 7 9 31 -4 23 -1 38 14 56 15 19
20 21 20 9 0 -9 -4 -16 -9 -16 -5 0 -5 -16 0 -37 15 -70 105 -124 169 -101 39
13 60 75 40 114 -13 24 -12 27 18 50 46 36 51 81 18 138 -25 42 -81 96 -102
96 -5 1 -27 9 -49 20 -22 11 -51 19 -64 20 -14 0 -33 8 -44 18 -11 9 -17 11
-13 5 8 -15 -10 -18 -19 -3 -19 30 -41 27 -122 -18z m252 -32 c3 -6 -10 -25
-29 -44 -30 -28 -36 -30 -36 -15 0 28 -1 32 -11 52 -9 15 -5 17 30 17 22 0 43
-5 46 -10z m-236 -56 c-6 -18 -4 -26 9 -34 16 -9 16 -11 -3 -25 -17 -14 -20
-14 -28 1 -6 10 -5 26 3 42 12 26 12 26 -9 8 -11 -10 -23 -27 -27 -38 -4 -15
-9 -17 -20 -7 -11 9 -14 9 -14 -1 0 -19 -13 -3 -17 20 -3 20 20 37 66 50 44
11 50 9 40 -16z m247 -9 c8 -8 22 -11 30 -8 14 5 15 3 5 -15 -14 -27 -41 -28
-63 -3 -12 14 -13 22 -5 30 14 14 16 14 33 -4z m-202 -11 c3 -8 2 -12 -4 -9
-6 3 -10 10 -10 16 0 14 7 11 14 -7z m151 -134 c3 -5 -1 -10 -10 -10 -9 0 -13
5 -10 10 3 6 8 10 10 10 2 0 7 -4 10 -10z m-223 -42 c-7 -7 -12 -8 -12 -2 0
14 12 26 19 19 2 -3 -1 -11 -7 -17z m137 -63 c0 -28 0 -29 -14 -11 -16 21 -20
68 -8 80 9 9 21 -28 22 -69z m99 63 c-2 -8 6 -12 20 -11 20 3 21 0 12 -17 -20
-37 -79 -15 -64 24 7 19 35 22 32 4z m-262 -34 c-6 -23 -4 -26 13 -21 17 4 18
2 8 -14 -14 -22 -28 -24 -45 -7 -17 17 -15 45 6 57 24 15 25 14 18 -15z"/>
<path d="M4560 1719 c0 -5 5 -7 10 -4 6 3 10 8 10 11 0 2 -4 4 -10 4 -5 0 -10
-5 -10 -11z"/>
<path d="M3160 1753 c-16 -20 -18 -28 -8 -34 9 -6 14 -1 16 14 2 12 11 28 20
35 9 6 11 12 5 12 -7 0 -21 -12 -33 -27z"/>
<path d="M3389 1748 c-1 -7 -1 -16 -1 -20 1 -3 -5 -9 -13 -12 -9 -3 -12 0 -9
8 8 22 -12 28 -27 8 -13 -15 -12 -16 4 -3 21 17 22 4 1 -20 -12 -13 -12 -19
-3 -25 7 -4 10 -3 5 4 -3 6 -2 13 4 17 5 3 10 1 10 -5 0 -6 5 -8 10 -5 6 3 10
1 10 -4 0 -11 -21 -15 -49 -12 -7 2 -11 -1 -8 -6 3 -4 -13 -21 -35 -36 -22
-16 -37 -23 -33 -18 3 6 2 11 -4 11 -5 0 -12 -8 -15 -17 -3 -10 -3 -1 -1 21 2
21 12 48 22 60 10 11 3 8 -15 -8 -18 -17 -32 -24 -32 -16 0 7 8 19 18 27 15
12 13 12 -11 2 -25 -11 -26 -14 -13 -34 18 -27 3 -60 -15 -35 -9 13 -10 13 -6
-2 6 -19 -14 -40 -34 -36 -7 2 -15 -6 -17 -17 -2 -11 -8 -24 -13 -29 -5 -6 -7
-1 -4 12 2 14 -1 19 -9 16 -8 -3 -16 10 -22 33 l-10 38 -1 -36 c-1 -20 -6 -45
-11 -56 -12 -23 -12 -64 0 -57 5 3 6 10 3 15 -11 16 9 39 25 29 13 -8 12 -10
-4 -10 -12 0 -16 -5 -13 -14 3 -8 -1 -20 -9 -27 -13 -10 -17 -10 -24 2 -8 11
-12 11 -25 -6 -16 -20 -16 -19 -5 2 9 20 8 23 -9 20 -11 -2 -24 -7 -28 -12 -5
-4 -2 -4 6 0 11 6 13 4 8 -7 -3 -9 0 -22 6 -29 7 -7 1 -5 -13 6 -14 11 -22 16
-18 11 4 -5 3 -15 -3 -22 -16 -20 -5 -40 38 -67 43 -27 142 -59 156 -50 5 3
13 -1 18 -8 7 -11 9 -9 9 6 0 29 -24 60 -67 86 -35 22 -36 23 -14 32 16 8 25
6 34 -4 39 -47 48 -40 18 14 -18 31 -31 57 -28 57 3 0 26 -29 52 -65 27 -36
50 -63 53 -60 9 8 -22 70 -57 115 -25 32 -28 38 -10 23 14 -13 29 -23 32 -23
4 0 3 10 -3 23 -9 17 -5 15 16 -8 l27 -30 -6 35 c-9 44 6 28 23 -25 l13 -40
13 39 c8 21 11 42 8 47 -3 5 0 8 7 7 6 -2 14 3 17 11 3 8 0 11 -7 7 -7 -5 -9
-1 -5 8 3 9 10 13 15 10 5 -3 9 1 9 9 0 15 29 38 63 50 14 5 17 1 16 -26 0
-27 -2 -29 -9 -12 -5 11 -9 14 -9 7 -1 -7 -5 -11 -10 -8 -4 3 -17 -4 -27 -16
-11 -12 -13 -18 -5 -13 9 5 12 3 9 -6 -3 -8 -10 -14 -16 -14 -21 0 -30 -20
-35 -80 -3 -33 -8 -69 -12 -80 -6 -15 -1 -12 19 9 22 25 26 26 27 10 0 -12 7
-5 20 21 10 22 19 34 19 26 0 -11 4 -11 18 2 33 30 37 18 4 -15 -51 -54 -63
-96 -64 -224 l-1 -115 -58 2 c-33 1 -61 0 -64 -3 -14 -14 88 -48 145 -48 51 0
61 3 72 23 7 12 11 29 9 37 -2 9 8 5 26 -11 15 -15 37 -30 49 -33 28 -8 55 22
44 49 -7 15 -9 16 -9 4 -1 -16 -20 -29 -44 -29 -7 0 -23 10 -37 23 -27 23 -27
24 -1 119 16 56 36 76 104 103 71 29 101 73 92 135 -9 61 -24 86 -87 148 -37
36 -60 51 -71 47 -9 -4 -13 -13 -10 -21 4 -10 9 -11 17 -5 9 7 17 4 29 -9 19
-23 22 -46 7 -55 -6 -4 -8 -11 -5 -16 4 -5 1 -9 -6 -9 -7 0 -9 8 -6 21 4 16 3
18 -9 8 -11 -9 -14 -9 -14 1 0 8 -3 11 -6 8 -3 -4 -1 -15 5 -26 10 -18 8 -21
-17 -24 -15 -2 -26 -8 -25 -14 1 -7 -6 -10 -17 -7 -11 3 -20 9 -20 14 0 5 7 6
15 2 10 -3 15 0 13 8 -2 9 4 13 15 11 24 -4 22 14 -3 21 -10 3 -18 0 -17 -5 1
-6 -4 -13 -10 -15 -9 -3 -13 8 -13 37 0 40 1 41 29 37 27 -5 29 -3 22 16 -5
12 -7 28 -5 35 1 7 0 8 -3 2 -2 -5 -12 -10 -21 -9 -11 0 -12 2 -4 6 19 8 14
20 -18 43 -21 15 -30 18 -31 8z m1 -171 c0 -2 -7 -4 -15 -4 -8 0 -12 4 -9 9 3
4 0 8 -6 8 -6 0 -8 5 -5 10 6 9 35 -10 35 -23z m21 -20 c-8 -8 -5 -18 11 -36
13 -14 17 -21 9 -14 -7 6 -19 10 -25 9 -6 -2 -7 -1 -2 2 4 2 3 7 -2 11 -6 4
-9 17 -5 29 3 12 10 19 15 16 6 -4 6 -10 -1 -17z m24 -121 c-41 -18 -61 -43
-75 -96 -12 -43 -7 -167 7 -208 4 -12 3 -14 -5 -7 -18 17 -26 178 -12 230 14
50 58 95 93 95 19 -1 17 -3 -8 -14z"/>
<path d="M1779 1672 c-24 -21 -32 -39 -36 -73 -3 -26 0 -55 6 -67 19 -36 95
-91 141 -101 43 -9 45 -9 82 28 49 50 50 83 4 155 -43 68 -70 86 -123 86 -33
0 -50 -7 -74 -28z m66 -3 c4 -6 -3 -21 -15 -34 -20 -21 -21 -27 -9 -41 12 -15
12 -16 -8 -10 -18 6 -20 4 -16 -14 4 -14 1 -20 -10 -20 -20 0 -28 13 -29 50
-2 51 66 104 87 69z m45 -19 c8 -5 11 -10 5 -10 -5 0 -17 5 -25 10 -8 5 -10
10 -5 10 6 0 17 -5 25 -10z m-11 -66 c-6 -8 -18 -14 -25 -14 -11 0 -10 5 4 18
19 21 39 18 21 -4z"/>
<path d="M763 1600 c0 -47 2 -66 4 -42 2 23 2 61 0 85 -2 23 -4 4 -4 -43z"/>
<path d="M3070 1670 c-9 -6 -10 -10 -3 -10 6 0 15 5 18 10 8 12 4 12 -15 0z"/>
<path d="M3285 1660 c-3 -6 1 -7 9 -4 18 7 21 14 7 14 -6 0 -13 -4 -16 -10z"/>
<path d="M1172 1602 c-54 -54 -76 -106 -76 -174 1 -71 38 -137 103 -183 36
-26 52 -30 105 -30 222 0 252 275 42 395 -75 44 -125 41 -174 -8z m89 -34 c41
-66 11 -188 -46 -188 -74 0 -93 124 -29 191 36 37 50 37 75 -3z"/>
<path d="M2803 1616 c6 -15 -31 -36 -64 -36 -11 0 -17 -4 -14 -10 3 -5 -1 -10
-9 -10 -9 0 -16 -5 -16 -11 0 -6 -7 -9 -15 -5 -8 3 -14 2 -12 -2 1 -4 -8 -23
-20 -42 -13 -19 -27 -42 -32 -50 -5 -8 -13 -24 -17 -35 -7 -17 -9 -15 -12 11
-2 22 -11 35 -28 43 -31 14 -55 15 -34 1 10 -7 1 -8 -31 -4 -30 4 -49 2 -53
-5 -5 -7 3 -11 21 -12 15 -1 39 -5 53 -10 19 -6 13 -8 -22 -4 -51 5 -66 -10
-22 -21 14 -4 21 -9 16 -13 -7 -4 -5 -13 3 -25 11 -15 22 -17 57 -12 33 5 39
4 26 -4 -10 -6 -18 -16 -18 -22 0 -7 6 -6 15 2 13 10 19 10 35 -5 11 -10 20
-24 20 -32 0 -7 4 -13 9 -13 17 0 3 -54 -18 -71 -47 -38 -156 -36 -206 3 -44
35 -74 135 -45 153 6 3 10 10 10 16 0 5 -4 9 -10 9 -5 0 -10 -6 -10 -14 0 -8
-6 -16 -13 -19 -29 -11 -51 -80 -51 -158 0 -82 18 -125 87 -211 31 -39 140
-116 173 -122 11 -2 37 -9 59 -14 22 -6 75 -12 117 -13 75 -2 79 -1 100 27 42
54 91 88 163 114 23 9 26 13 15 20 -13 8 -12 10 2 10 11 0 15 5 12 14 -3 8 -1
17 5 21 15 9 14 83 -3 139 -25 81 -126 208 -206 258 -34 22 -113 29 -144 13
-24 -13 -24 -12 -14 17 15 41 78 82 116 73 46 -10 80 33 50 63 -16 16 -31 15
-25 -2z m-128 -226 c3 -6 -1 -7 -9 -4 -18 7 -21 14 -7 14 6 0 13 -4 16 -10z"/>
<path d="M4565 1601 c-3 -5 -2 -12 3 -15 5 -3 9 1 9 9 0 17 -3 19 -12 6z"/>
<path d="M921 1534 c0 -11 3 -14 6 -6 3 7 2 16 -1 19 -3 4 -6 -2 -5 -13z"/>
<path d="M3011 1537 c-9 -12 -8 -16 3 -20 19 -7 32 11 19 24 -6 6 -14 5 -22
-4z"/>
<path d="M909 1468 c-3 -22 -1 -34 4 -29 5 5 7 21 5 37 -3 27 -4 26 -9 -8z"/>
<path d="M1647 1420 c6 -116 11 -131 11 -35 0 44 -3 89 -7 100 -4 11 -6 -18
-4 -65z"/>
<path d="M2300 1490 c-9 -6 -10 -10 -3 -10 6 0 15 5 18 10 8 12 4 12 -15 0z"/>
<path d="M3750 1443 c0 -24 -25 -32 -33 -10 -3 6 -6 2 -6 -10 -1 -12 3 -24 8
-27 5 -3 7 -16 4 -27 -4 -16 -2 -20 8 -17 8 3 16 13 18 24 1 10 9 26 17 35 12
13 12 18 -1 35 -14 18 -14 18 -15 -3z"/>
<path d="M762 1420 c0 -14 2 -19 5 -12 2 6 2 18 0 25 -3 6 -5 1 -5 -13z"/>
<path d="M915 1368 c7 -104 89 -214 203 -272 71 -36 188 -52 265 -35 32 6 60
16 64 22 3 6 2 7 -4 4 -5 -3 -39 -11 -75 -17 -212 -33 -417 102 -448 297 l-9
58 4 -57z"/>
<path d="M3311 1374 c0 -11 3 -14 6 -6 3 7 2 16 -1 19 -3 4 -6 -2 -5 -13z"/>
<path d="M4797 1356 c4 -18 0 -26 -19 -32 -12 -4 -26 -7 -30 -6 -5 1 -8 -2 -8
-7 0 -13 46 -19 64 -9 20 11 21 51 2 67 -11 9 -12 7 -9 -13z"/>
<path d="M1858 1344 c-33 -17 -53 -54 -61 -109 -4 -22 -4 -34 -1 -27 4 8 12 1
23 -20 9 -18 35 -46 58 -62 39 -27 64 -32 138 -24 19 2 39 71 29 101 -11 36
-70 123 -95 141 -29 20 -55 20 -91 0z m54 -26 c6 -35 -12 -65 -44 -79 -36 -15
-52 1 -42 41 13 56 79 85 86 38z"/>
<path d="M763 1275 c0 -44 2 -61 4 -37 2 23 2 59 0 80 -2 20 -4 1 -4 -43z"/>
<path d="M4454 1325 c-17 -14 -18 -15 0 -9 14 5 17 3 14 -12 -3 -13 -11 -18
-26 -17 -26 3 -28 -14 -4 -43 22 -27 47 -36 78 -28 35 9 33 62 -2 98 -31 30
-34 31 -60 11z"/>
<path d="M2590 1320 c0 -5 5 -10 11 -10 5 0 7 5 4 10 -3 6 -8 10 -11 10 -2 0
-4 -4 -4 -10z"/>
<path d="M4980 1292 c0 -24 -17 -39 -50 -44 l-25 -4 26 -13 c37 -18 69 0 69
39 0 16 -4 32 -10 35 -5 3 -10 -3 -10 -13z"/>
<path d="M306 1278 c-13 -19 -14 -25 -2 -43 18 -27 43 -31 67 -9 25 22 24 36
-3 60 -14 12 -19 14 -13 4 6 -12 5 -13 -6 -2 -18 17 -26 15 -43 -10z m59 -48
c-3 -5 -16 -10 -28 -9 -20 1 -20 2 3 9 14 4 26 8 28 9 2 1 0 -3 -3 -9z"/>
<path d="M1632 1271 c-6 -17 -9 -31 -6 -31 7 0 25 52 20 57 -2 2 -8 -10 -14
-26z"/>
<path d="M4042 1150 c142 -251 150 -271 156 -354 12 -187 -102 -328 -276 -343
-57 -5 -77 -2 -130 19 -73 30 -71 22 6 -31 78 -53 123 -65 222 -65 94 1 134
15 190 64 34 31 40 32 100 15 51 -15 59 59 11 108 -17 19 -29 36 -25 39 6 7
12 33 13 61 1 27 16 20 34 -18 34 -70 167 -191 263 -238 155 -76 344 -51 468
63 l46 43 0 188 0 188 -39 58 c-55 82 -149 168 -223 203 -93 44 -107 39 -53
-17 43 -44 50 -59 45 -92 -3 -25 -34 -60 -52 -61 -10 0 -18 -7 -18 -15 0 -41
-177 -232 -205 -221 -9 3 -18 0 -21 -8 -10 -26 -98 -11 -138 23 -10 9 -20 15
-22 14 -11 -8 -24 -1 -24 12 0 8 -6 15 -13 15 -16 0 -37 54 -38 101 l-1 34 -8
-30 c-4 -16 -9 -61 -10 -100 -1 -50 -4 -63 -9 -45 -8 26 -54 124 -70 150 -5 8
-27 44 -47 80 -21 36 -41 67 -44 70 -6 4 -10 13 -21 45 -4 11 -21 33 -56 73
-13 14 -23 28 -23 31 -1 3 -16 24 -36 46 -26 31 -15 6 48 -105z m251 -597 c8
-7 -11 -33 -24 -33 -5 0 -9 9 -9 20 0 19 20 27 33 13z"/>
<path d="M1581 1187 c-29 -35 -30 -38 -7 -17 24 22 52 60 44 60 -2 0 -18 -19
-37 -43z"/>
<path d="M3132 1182 c-11 -18 -19 -22 -38 -18 -34 9 -30 -10 5 -22 37 -13 53
-2 49 34 l-3 29 -13 -23z"/>
<path d="M4681 1166 c-7 -8 -15 -33 -18 -54 -5 -39 -6 -39 -24 -21 -24 24 -36
24 -49 -1 -14 -26 -7 -36 33 -49 23 -8 45 -7 81 2 54 13 69 31 36 42 -11 3
-18 11 -15 16 4 5 2 9 -3 9 -5 0 -14 -10 -19 -22 -10 -22 -11 -22 -19 -4 -4
11 -2 27 5 38 6 10 9 23 6 29 -4 5 -3 8 2 7 4 -2 9 1 11 7 6 16 -14 17 -27 1z"/>
<path d="M1470 1100 c-9 -6 -10 -10 -3 -10 6 0 15 5 18 10 8 12 4 12 -15 0z"/>
<path d="M2005 1070 c3 -14 8 -45 11 -70 5 -43 5 -44 -10 -20 -8 14 -17 23
-21 22 -4 -2 -21 9 -37 25 -26 23 -29 24 -19 6 6 -12 16 -25 21 -28 21 -13 9
-24 -16 -15 -14 6 -32 10 -40 10 -26 0 -15 -18 18 -29 l32 -12 -31 -19 c-18
-10 -37 -29 -44 -42 -11 -20 -9 -20 22 6 30 25 38 27 79 21 25 -4 56 -7 70 -7
42 2 54 -6 40 -23 -9 -10 -9 -15 -1 -15 15 0 14 -36 -3 -69 -25 -48 -79 -88
-130 -95 -62 -10 -109 13 -142 69 -32 56 -50 63 -58 23 -23 -113 16 -202 139
-316 75 -70 133 -103 226 -127 103 -27 202 -4 277 63 30 28 37 30 90 25 46 -4
62 -2 75 12 37 36 5 117 -60 152 -18 10 -34 28 -38 42 -9 39 -48 134 -60 147
-5 7 -19 25 -30 40 -51 73 -142 142 -192 146 -32 2 -32 2 -16 28 15 23 13 23
-17 -5 -18 -16 -30 -24 -26 -17 4 6 5 12 1 12 -3 0 -9 -10 -14 -22 -7 -19 -9
-17 -9 15 0 21 -3 41 -6 44 -3 4 -6 -9 -6 -28 0 -26 -3 -30 -10 -19 -8 12 -10
10 -11 -10 0 -21 -4 -17 -20 20 -11 25 -24 54 -29 65 -9 18 -10 17 -5 -5z
m445 -495 c0 -8 -4 -15 -10 -15 -5 0 -10 7 -10 15 0 8 5 15 10 15 6 0 10 -7
10 -15z"/>
<path d="M3423 1015 c-12 -8 -27 -31 -33 -51 -16 -48 7 -109 57 -147 46 -35
76 -42 122 -31 32 8 36 13 42 49 5 26 3 45 -5 55 -7 8 -25 36 -40 62 -39 70
-97 95 -143 63z m53 -29 c6 -25 -10 -65 -26 -67 -41 -5 -45 -3 -48 27 -5 56
61 92 74 40z"/>
<path d="M801 954 c0 -11 3 -14 6 -6 3 7 2 16 -1 19 -3 4 -6 -2 -5 -13z"/>
<path d="M4321 954 c0 -11 3 -14 6 -6 3 7 2 16 -1 19 -3 4 -6 -2 -5 -13z"/>
<path d="M2058 903 c7 -3 16 -2 19 1 4 3 -2 6 -13 5 -11 0 -14 -3 -6 -6z"/>
<path d="M3310 870 c0 -3 7 -23 15 -45 34 -95 8 -220 -61 -289 -77 -77 -218
-103 -319 -57 l-49 22 22 -24 c13 -13 48 -37 80 -53 74 -38 191 -46 255 -18
47 20 97 61 97 80 0 6 6 17 14 24 8 6 16 21 18 33 3 20 5 20 22 -9 24 -39 91
-84 128 -84 29 0 68 33 68 58 0 25 -32 82 -58 102 -34 27 -76 27 -69 0 6 -23
-16 -56 -31 -46 -7 4 -12 2 -12 -3 0 -6 -5 -11 -11 -11 -7 0 -9 10 -5 24 3 14
2 28 -4 31 -6 3 -7 -1 -4 -9 3 -9 1 -16 -5 -16 -14 0 -14 11 0 47 17 45 2 106
-46 180 -25 37 -45 66 -45 63z"/>
<path d="M2520 850 c-13 -8 -12 -10 3 -10 11 0 17 -8 17 -21 0 -19 -4 -21 -31
-15 -29 6 -30 4 -27 -26 4 -38 43 -70 87 -72 18 -1 31 -6 31 -14 0 -9 5 -10
19 -3 21 12 31 5 31 -20 0 -18 -26 -33 -40 -24 -5 3 -12 0 -15 -5 -25 -41 59
-118 116 -106 66 13 74 42 33 112 -28 47 -50 64 -83 64 -16 0 -21 6 -21 26 0
28 -33 91 -58 112 -19 14 -41 15 -62 2z"/>
<path d="M4120 841 c0 -13 -8 -55 -17 -94 -15 -62 -24 -78 -68 -124 -28 -28
-64 -55 -81 -59 -16 -4 -36 -12 -44 -19 -8 -7 -30 -16 -49 -20 -31 -7 -32 -8
-17 -23 11 -11 32 -16 64 -16 70 2 101 7 96 16 -3 4 2 8 10 8 8 0 22 10 30 22
9 12 19 19 22 15 10 -10 55 73 47 86 -3 5 -1 7 5 3 12 -7 37 58 27 74 -3 5 0
10 8 10 18 0 8 71 -16 115 -15 28 -16 29 -17 6z"/>
<path d="M2717 470 c4 -15 0 -20 -16 -20 -11 0 -21 -3 -21 -7 1 -25 40 -46 65
-37 21 8 20 70 -1 78 -26 10 -32 7 -27 -14z"/>
</g>
</svg>
